<svg version="1.1" xmlns="http://www.w3.org/2000/svg" xmlns:xlink="http://www.w3.org/1999/xlink" x="0px" y="0px"
	 viewBox="0 0 120 50" style="enable-background:new 0 0 120 50;" xml:space="preserve">
<style type="text/css">
	.st0{fill-rule:evenodd;clip-rule:evenodd;fill:#232323;}
	.st1{fill:#ffffff;}
</style>
<g>
	<path class="st0" d="M88,25.9l1.6-2.8l-22,0C66.7,11.5,57,2.5,45.3,2.5c-6.3,0-11.9,2.6-16,6.7H20L18.3,12l14.9,0
		c3.3,0,6.1,2.7,6.1,6.1c0,3.3-2.7,6.1-6.1,6.1l-10.5,0c0,0,0,0,0,0H2.5L0.9,27l22,0c1,11.5,10.6,20.5,22.4,20.5
		c6.3,0,11.9-2.6,16-6.7h9.3l1.6-2.8l-8.6,0c0,0,0,0,0,0l-5.3,0l-1.1,0c-3.3,0-6.1-2.7-6.1-6.1c0-3.3,2.7-6.1,6.1-6.1l2.2,0v0H88z
		 M39.2,11.1c0-3.3,2.7-6.1,6.1-6.1c3.3,0,6.1,2.7,6.1,6.1c0,3.3-2.7,6.1-6.1,6.1C41.9,17.2,39.2,14.5,39.2,11.1z M41.7,29.6
		c0.2-0.4,0.7-0.5,1.1-0.3c0.4,0.2,0.5,0.7,0.3,1.1c-0.2,0.4-0.7,0.5-1.1,0.3C41.6,30.4,41.5,30,41.7,29.6z M42,19.3
		c0.4-0.2,0.9-0.1,1.1,0.3c0.2,0.4,0.1,0.9-0.3,1.1c-0.4,0.2-0.9,0.1-1.1-0.3C41.5,20,41.6,19.6,42,19.3z M41.9,25
		c0-1.9,1.5-3.4,3.4-3.4c1.9,0,3.4,1.5,3.4,3.4c0,1.9-1.5,3.4-3.4,3.4C43.4,28.4,41.9,26.9,41.9,25z M47.8,29.3
		c0.4-0.2,0.9-0.1,1.1,0.3c0.2,0.4,0.1,0.9-0.3,1.1c-0.4,0.2-0.9,0.1-1.1-0.3C47.3,30,47.4,29.5,47.8,29.3z M48.8,20.4
		c-0.2,0.4-0.7,0.5-1.1,0.3c-0.4-0.2-0.5-0.7-0.3-1.1c0.2-0.4,0.7-0.5,1.1-0.3C48.9,19.6,49,20,48.8,20.4z M39.5,24.2
		c0.4,0,0.8,0.3,0.8,0.8c0,0.4-0.3,0.8-0.8,0.8s-0.8-0.3-0.8-0.8C38.7,24.6,39.1,24.2,39.5,24.2z M36.3,37.2
		c-2.9,1.7-6.6,0.7-8.3-2.2c-1.7-2.9-0.7-6.6,2.2-8.3c2.9-1.7,6.6-0.7,8.3,2.2C40.2,31.8,39.2,35.5,36.3,37.2z M51.3,38.9
		c0,3.3-2.7,6.1-6.1,6.1c-3.3,0-6.1-2.7-6.1-6.1c0-3.3,2.7-6.1,6.1-6.1C48.6,32.8,51.3,35.5,51.3,38.9z M51,25.8
		c-0.4,0-0.8-0.3-0.8-0.8c0-0.4,0.3-0.8,0.8-0.8c0.4,0,0.8,0.3,0.8,0.8C51.8,25.4,51.5,25.8,51,25.8z M52,21.1
		c-1.7-2.9-0.7-6.6,2.2-8.3c2.9-1.7,6.6-0.7,8.3,2.2c1.7,2.9,0.7,6.6-2.2,8.3C57.4,25,53.7,24,52,21.1z"/>
	<path class="st1" d="M9.1,13.3l-0.3,2.1c-1.1,0-1.8,0-3.1,0c-1.3,0-1.7,0.4-2.1,3.1c-0.3,2.3-0.2,2.9,1.1,2.9c1.5,0,2.3,0,3.3-0.1
		L8,23.2c-1.1,0.3-2,0.5-3.5,0.5c-3.4,0-4.5-1.5-3.9-5.5c0.6-4.1,1.8-5.3,5.2-5.3C7.3,12.9,8.1,13,9.1,13.3z M12,23.5H9.2l1.5-10.4
		h2.8L12,23.5z M23.1,22.6c-0.1,0.7-0.4,0.9-1,0.9h-1.2c-0.6,0-0.8-0.3-1-0.9l-1.9-4.5c-0.2-0.5-0.4-1.1-0.5-1.6h-0.1
		c0,0.6,0,1.2-0.1,1.8l-0.8,5.2h-2.6l1.3-9.5c0.1-0.7,0.4-0.9,1-0.9h1.2c0.6,0,0.8,0.3,1,0.9l1.9,4.3c0.2,0.5,0.4,1.1,0.6,1.8H21
		c0-0.7,0-1.2,0.1-1.7l0.7-5.2h2.6L23.1,22.6z M28.6,15.9l-0.2,1.2h3.9l-0.2,1.9h-3.9l-0.2,1.6c-0.1,0.5,0.1,0.7,0.6,0.7h3.7
		l-0.1,2.1c-1.4,0.2-3.3,0.2-4.8,0.2c-1.7,0-2.5-1.1-2.3-2.7l0.8-5.7c0.2-1.3,1.1-2.2,2.6-2.2c1.8,0,3.7,0,5.1,0.2l-0.3,2h-3.8
		C28.9,15.2,28.7,15.4,28.6,15.9z M70.1,27.7l-0.9,9.4h-2.6l0.9-8.3h-0.2l-2.1,5.9c-0.2,0.6-0.5,0.8-1.2,0.8h-1.6
		c-0.6,0-1-0.3-1-0.9l-0.5-5.8h-0.2l-1.4,8.3h-2.6l1.7-9.5c0.1-0.7,0.4-1,1.1-1h2.5c0.6,0,1,0.3,1,0.9l0.4,4.6c0,0.5,0,1,0,1.5h0.2
		c0.1-0.6,0.3-1,0.4-1.5l1.6-4.7c0.2-0.6,0.5-0.8,1.1-0.8h2.6C69.8,26.6,70.2,27.1,70.1,27.7z M74.7,29.5l-0.2,1.2h3.9l-0.2,1.9
		h-3.9L74,34.3c-0.1,0.5,0.1,0.7,0.6,0.7h3.7L78.3,37c-1.4,0.2-3.3,0.2-4.8,0.2c-1.7,0-2.5-1.1-2.3-2.7l0.8-5.7
		c0.2-1.3,1.1-2.2,2.6-2.2c1.8,0,3.7,0,5.1,0.2l-0.3,2h-3.8C74.9,28.8,74.7,29,74.7,29.5z M88.9,36.1c-0.1,0.7-0.4,0.9-1,0.9h-1.2
		c-0.6,0-0.8-0.3-1-0.9l-1.9-4.5c-0.2-0.5-0.4-1.1-0.5-1.6h-0.1c0,0.6,0,1.2-0.1,1.8l-0.8,5.2h-2.6l1.3-9.5c0.1-0.7,0.4-0.9,1-0.9
		h1.2c0.6,0,0.8,0.3,1,0.9l1.9,4.3c0.2,0.5,0.4,1.1,0.6,1.8h0.2c0-0.7,0-1.2,0.1-1.7l0.7-5.2h2.6L88.9,36.1z M99.8,28.8h-3l-1.2,8.2
		h-2.8l1.2-8.2h-3l0.3-2.2h8.8L99.8,28.8z M109.4,32c-0.6,4.2-2,5.3-5.2,5.3c-3.4,0-4.6-1.3-4.1-5.5c0.6-4.2,1.9-5.3,5.2-5.3
		C108.6,26.4,110,27.7,109.4,32z M103.1,32c-0.4,2.5-0.1,3.1,1.2,3.1c1.3,0,1.8-0.6,2.2-3.4c0.4-2.6,0.1-3.1-1.2-3.1
		C103.9,28.6,103.5,29.2,103.1,32z M117.1,32.2l0,0.1c0.5,0.1,1.2,0.5,1.3,1.6l0.5,3.2H116l-0.4-3.2c0-0.6-0.2-0.7-0.7-0.7h-1.4
		l-0.6,3.9h-2.8l1.5-10.4c1.3-0.1,2.2-0.2,4.1-0.2c2.7,0,4.1,0.8,3.8,3.3C119.3,31,118.8,32,117.1,32.2z M115.6,28.6h-1.5l-0.3,2.5
		h1.4c1,0,1.4-0.3,1.5-1.4C116.8,28.8,116.5,28.6,115.6,28.6z"/>
</g>
</svg>
