<svg version="1.1" xmlns="http://www.w3.org/2000/svg" xmlns:xlink="http://www.w3.org/1999/xlink" x="0px" y="0px"
	 viewBox="0 0 70 70" style="enable-background:new 0 0 70 70;" xml:space="preserve">
<style type="text/css">
	.st0{fill:#232323;}
</style>
<g>
	<path class="st0 rollLeft" d="M23.5,25.3c4.2,0,7.6-3.4,7.6-7.6c0-4.2-3.4-7.6-7.6-7.6c-4.2,0-7.6,3.4-7.6,7.6
		C15.9,21.9,19.3,25.3,23.5,25.3z M21.3,16.5c-0.5,1-1.8,1.3-2.7,0.7c-1-0.5-1.3-1.8-0.7-2.7c0.5-1,1.8-1.3,2.7-0.7
		C21.5,14.3,21.8,15.5,21.3,16.5z M25.5,13.2c0,1.1-0.9,2-2,2s-2-0.9-2-2c0-1.1,0.9-2,2-2S25.5,12.1,25.5,13.2z M23.5,17
		c0.4,0,0.7,0.3,0.7,0.7c0,0.4-0.3,0.7-0.7,0.7c-0.4,0-0.7-0.3-0.7-0.7C22.8,17.3,23.1,17,23.5,17z M28.4,17.2
		c-1,0.6-2.2,0.2-2.7-0.7c-0.6-1-0.2-2.2,0.7-2.7c1-0.6,2.2-0.2,2.7,0.7C29.7,15.4,29.4,16.6,28.4,17.2z M25.7,19
		c0.5-1,1.8-1.3,2.7-0.7c1,0.5,1.3,1.8,0.7,2.7c-0.5,1-1.8,1.3-2.7,0.7C25.5,21.2,25.1,20,25.7,19z M21.5,22.3c0-1.1,0.9-2,2-2
		s2,0.9,2,2c0,1.1-0.9,2-2,2S21.5,23.4,21.5,22.3z M17.8,21c-0.6-1-0.2-2.2,0.7-2.7c1-0.6,2.2-0.2,2.7,0.7c0.6,1,0.2,2.2-0.7,2.7
		C19.6,22.3,18.4,22,17.8,21z"/>
	<path class="st0 rollRight" d="M39.5,25.3c4.2,0,7.6-3.4,7.6-7.6c0-4.2-3.4-7.6-7.6-7.6s-7.6,3.4-7.6,7.6C31.9,21.9,35.3,25.3,39.5,25.3z
		 M37.3,16.5c-0.5,1-1.8,1.3-2.7,0.7c-1-0.5-1.3-1.8-0.7-2.7c0.5-1,1.8-1.3,2.7-0.7C37.5,14.3,37.8,15.5,37.3,16.5z M41.5,13.2
		c0,1.1-0.9,2-2,2s-2-0.9-2-2c0-1.1,0.9-2,2-2S41.5,12.1,41.5,13.2z M39.5,17c0.4,0,0.7,0.3,0.7,0.7c0,0.4-0.3,0.7-0.7,0.7
		s-0.7-0.3-0.7-0.7C38.8,17.3,39.1,17,39.5,17z M44.5,17.2c-1,0.6-2.2,0.2-2.7-0.7c-0.6-1-0.2-2.2,0.7-2.7c1-0.6,2.2-0.2,2.7,0.7
		C45.7,15.4,45.4,16.6,44.5,17.2z M41.7,19c0.5-1,1.8-1.3,2.7-0.7c1,0.5,1.3,1.8,0.7,2.7c-0.5,1-1.8,1.3-2.7,0.7
		C41.5,21.2,41.2,20,41.7,19z M37.5,22.3c0-1.1,0.9-2,2-2s2,0.9,2,2c0,1.1-0.9,2-2,2S37.5,23.4,37.5,22.3z M33.9,21
		c-0.6-1-0.2-2.2,0.7-2.7c1-0.6,2.2-0.2,2.7,0.7c0.6,1,0.2,2.2-0.7,2.7C35.6,22.3,34.4,22,33.9,21z"/>
	<path class="st0" d="M25,26.2h13.5c2.8,0,5,2.2,5,5v5.5c0,2.8-2.2,5-5,5H25c-2.8,0-5-2.2-5-5v-5.5C20,28.4,22.2,26.2,25,26.2z"/>
	<path class="st0" d="M49.1,30.6h-0.5c-0.7,0-1.2,0.6-1.2,1.2v4.3c0,0.7,0.6,1.2,1.2,1.2h0.5c0.7,0,1.2-0.6,1.2-1.2v-4.3
		C50.3,31.1,49.8,30.6,49.1,30.6z"/>
	<path class="st0" d="M51.3,37.5l2.3,1.7c0.2,0.2,0.5,0,0.5-0.3V29c0-0.3-0.3-0.4-0.5-0.3l-2.3,1.7c-0.1,0.1-0.1,0.2-0.1,0.3v6.5
		C51.2,37.3,51.2,37.4,51.3,37.5z"/>
	<path class="st0" d="M55.4,40.9h0.8c0.2,0,0.3-0.1,0.3-0.3V27.4c0-0.2-0.1-0.3-0.3-0.3h-0.8c-0.2,0-0.3,0.1-0.3,0.3v13.2
		C55,40.7,55.2,40.9,55.4,40.9z"/>
	<path class="st0" d="M16.1,26.7h0.6c0.2,0,0.3,0.1,0.3,0.3v2.1c0,0.2-0.1,0.3-0.3,0.3h-0.6c-0.1,0-0.1,0-0.2,0L14,30.6
		c-0.2,0.1-0.5,0-0.5-0.3v-4.5c0-0.3,0.3-0.4,0.5-0.3l1.9,1.1C15.9,26.7,16,26.7,16.1,26.7z"/>
	<path class="st0" d="M46.5,29.8v8.2c0,0.2-0.1,0.3-0.3,0.3h-1.4c-0.2,0-0.3-0.1-0.3-0.3v-8.2c0-0.2,0.1-0.3,0.3-0.3h1.4
		C46.3,29.5,46.5,29.7,46.5,29.8z"/>
	<path class="st0" d="M18.2,26.2h0.6c0.2,0,0.3,0.1,0.3,0.3v3.2c0,0.2-0.1,0.3-0.3,0.3h-0.6c-0.2,0-0.3-0.1-0.3-0.3v-3.2
		C17.9,26.4,18,26.2,18.2,26.2z"/>
	<path class="st0" d="M40.1,59.9h-1.6c-0.1,0-0.3-0.1-0.3-0.2l-4.5-10.5c0,0,0-0.1,0-0.1v-3.9c0-0.4,0.5-0.5,0.6-0.1l6.1,14.4
		C40.5,59.6,40.4,59.9,40.1,59.9z"/>
	<path class="st0" d="M23,59.4L29.2,45c0.1-0.3,0.6-0.2,0.6,0.1V49c0,0,0,0.1,0,0.1l-4.5,10.5c-0.1,0.1-0.2,0.2-0.3,0.2h-1.6
		C23.1,59.9,23,59.6,23,59.4z"/>
	<path class="st0" d="M31,42.6h1.5c0.2,0,0.3,0.1,0.3,0.3v16.6c0,0.2-0.1,0.3-0.3,0.3H31c-0.2,0-0.3-0.1-0.3-0.3V42.9
		C30.6,42.7,30.8,42.6,31,42.6z"/>
</g>
</svg>
