<svg version="1.1" xmlns="http://www.w3.org/2000/svg" xmlns:xlink="http://www.w3.org/1999/xlink" x="0px" y="0px"
	 viewBox="0 0 70 70" style="enable-background:new 0 0 70 70;" xml:space="preserve">
<style type="text/css">
	.st0{fill:#232323;}
</style>
<g>
	<path class="st0" d="M27.2,16.7l4,4.9c0.1,0.1,0.2,0.1,0.3,0.1l2.8-0.5c0.3,0,0.4-0.3,0.2-0.5l-4-4.9c-0.1-0.1-0.2-0.1-0.3-0.1
		l-2.8,0.5C27.2,16.2,27,16.5,27.2,16.7z"/>
	<path class="st0" d="M39.3,14.7l4,4.9c0.1,0.1,0.2,0.1,0.3,0.1l2.8-0.5c0.3,0,0.4-0.3,0.2-0.5l-4-4.9c-0.1-0.1-0.2-0.1-0.3-0.1
		l-2.8,0.5C39.3,14.2,39.2,14.5,39.3,14.7z"/>
	<path class="st0" d="M33.3,15.7l4,4.9c0.1,0.1,0.2,0.1,0.3,0.1l2.8-0.5c0.3,0,0.4-0.3,0.2-0.5l-4-4.9c-0.1-0.1-0.2-0.1-0.3-0.1
		l-2.8,0.5C33.2,15.2,33.1,15.5,33.3,15.7z"/>
	<path class="st0" d="M21.2,17.8l4,4.9c0.1,0.1,0.2,0.1,0.3,0.1l2.8-0.5c0.3,0,0.4-0.3,0.2-0.5l-4-4.9c-0.1-0.1-0.2-0.1-0.3-0.1
		l-2.8,0.5C21.1,17.3,21,17.6,21.2,17.8z"/>
	<path class="st0" d="M54.2,11.7l-2.6,0.4c-0.3,0-0.4,0.3-0.2,0.5l3.9,4.7c0,0.1,0.1,0,0.1-0.1l-0.9-5.4
		C54.5,11.8,54.4,11.6,54.2,11.7z"/>
	<path class="st0" d="M45.4,13.7l4,4.9c0.1,0.1,0.2,0.1,0.3,0.1l2.8-0.5c0.3,0,0.4-0.3,0.2-0.5l-4-4.9c-0.1-0.1-0.2-0.1-0.3-0.1
		l-2.8,0.5C45.3,13.2,45.2,13.5,45.4,13.7z"/>
	<path class="st0" d="M41.3,44.6h-9.5c-0.2,0-0.3,0.1-0.3,0.3v5.4c0,0.2,0.1,0.3,0.3,0.3h9.5c0.2,0,0.3-0.1,0.3-0.3v-5.4
		C41.6,44.8,41.5,44.6,41.3,44.6z"/>
	<path class="st0" d="M56,24.5l-2.2,5.6c0,0.1-0.2,0.2-0.3,0.2h-1.6c-0.2,0-0.4-0.2-0.3-0.4l2-5.2c0.1-0.2-0.1-0.4-0.3-0.4l-3,0
		c-0.1,0-0.2,0.1-0.3,0.2l-3.4,5.8c-0.1,0.1-0.2,0.2-0.3,0.2h-1.8c-0.3,0-0.4-0.3-0.3-0.5l3-5.1c0.1-0.2,0-0.5-0.3-0.5l-2.9,0
		c-0.1,0-0.2,0.1-0.3,0.2l-3.3,5.8c-0.1,0.1-0.2,0.2-0.3,0.2h-1.8c-0.3,0-0.4-0.3-0.3-0.5l3-5.1c0.1-0.2,0-0.5-0.3-0.5l-2.9,0
		c-0.1,0-0.2,0.1-0.3,0.2l-3.4,5.8c-0.1,0.1-0.2,0.2-0.3,0.2l-1.7,0c-0.3,0-0.4-0.3-0.3-0.5l2.9-5.1c0.1-0.2,0-0.5-0.3-0.5l-2.9,0
		c-0.1,0-0.2,0.1-0.3,0.2l-3.3,5.7c-0.1,0.1-0.2,0.2-0.3,0.2l-1.8,0c-0.3,0-0.4-0.3-0.3-0.5l2.9-5.1c0.1-0.2,0-0.5-0.3-0.5l-2.9,0
		c-0.1,0-0.2,0.1-0.3,0.2L22,30.2c-0.1,0.1-0.2,0.2-0.3,0.2l-1.8,0c-0.3,0-0.4-0.3-0.3-0.5l2.9-5.1c0.1-0.2,0-0.5-0.3-0.5l-4.5,0
		c-0.2,0-0.2-0.2,0-0.3l4.4-0.7c0.3,0,0.4-0.3,0.2-0.5l-4-4.9c-0.1-0.1-0.2-0.1-0.3-0.1l-2.8,0.5l0,0l-1.1,0.2
		c-0.2,0-0.3,0.2-0.3,0.4l0.9,5.5c0,0.1,0,0.1,0,0.2l0,5.6c0,0.2,0.1,0.3,0.3,0.3l0.8,0c0.2,0,0.3,0.1,0.3,0.3V58
		c0,0.2,0.1,0.3,0.3,0.3h39.1c0.2,0,0.3-0.1,0.3-0.3l0-33.5C56.1,24.5,56,24.4,56,24.5z M16.3,24.3L16.3,24.3L16.3,24.3L16.3,24.3z
		 M53.4,55H19.2c-0.2,0-0.3-0.1-0.3-0.3v-0.2c0-0.2,0.1-0.3,0.3-0.3h34.2c0.2,0,0.3,0.1,0.3,0.3v0.2C53.7,54.8,53.5,55,53.4,55z
		 M53.4,44.6H42.8c-0.2,0-0.3,0.1-0.3,0.3v5.4c0,0.2,0.1,0.3,0.3,0.3h10.6c0.2,0,0.3,0.1,0.3,0.3v0.2c0,0.2-0.1,0.3-0.3,0.3H19.2
		c-0.2,0-0.3-0.1-0.3-0.3V51c0-0.2,0.1-0.3,0.3-0.3h11c0.2,0,0.3-0.1,0.3-0.3v-5.4c0-0.2-0.1-0.3-0.3-0.3h-11
		c-0.2,0-0.3-0.1-0.3-0.3v-0.2c0-0.2,0.1-0.3,0.3-0.3h34.2c0.2,0,0.3,0.1,0.3,0.3v0.2C53.7,44.5,53.5,44.6,53.4,44.6z"/>
</g>
</svg>
