<svg version="1.1" xmlns="http://www.w3.org/2000/svg" xmlns:xlink="http://www.w3.org/1999/xlink" x="0px" y="0px"
	 viewBox="0 0 70 70" style="enable-background:new 0 0 70 70;" xml:space="preserve">
<style type="text/css">
	.st0{fill:#232323;}
</style>
<g>
	<path class="st0" d="M49.3,35c0-9.7-7.8-17.5-17.5-17.5S14.3,25.3,14.3,35c0,9.7,7.8,17.5,17.5,17.5S49.3,44.7,49.3,35z M38.6,25.8
		c2.2-1.3,5-0.5,6.3,1.7c1.3,2.2,0.5,5-1.7,6.3c-2.2,1.3-5,0.5-6.3-1.7C35.6,29.9,36.4,27,38.6,25.8z M31.8,19.9
		c2.5,0,4.6,2.1,4.6,4.6c0,2.5-2.1,4.6-4.6,4.6c-2.5,0-4.6-2.1-4.6-4.6C27.2,22,29.3,19.9,31.8,19.9z M33.4,35
		c0,0.9-0.7,1.6-1.6,1.6c-0.9,0-1.6-0.7-1.6-1.6c0-0.9,0.7-1.6,1.6-1.6C32.7,33.4,33.4,34.1,33.4,35z M18.8,27.4
		c1.3-2.2,4.1-2.9,6.3-1.7c2.2,1.3,2.9,4.1,1.7,6.3c-1.3,2.2-4.1,2.9-6.3,1.7C18.2,32.4,17.5,29.6,18.8,27.4z M25,44.2
		c-2.2,1.3-5,0.5-6.3-1.7c-1.3-2.2-0.5-5,1.7-6.3c2.2-1.3,5-0.5,6.3,1.7C28,40.1,27.2,43,25,44.2z M31.8,50.1
		c-2.5,0-4.6-2.1-4.6-4.6c0-2.5,2.1-4.6,4.6-4.6c2.5,0,4.6,2.1,4.6,4.6C36.4,48,34.3,50.1,31.8,50.1z M38.5,44.3
		c-2.2-1.3-2.9-4.1-1.7-6.3c1.3-2.2,4.1-2.9,6.3-1.7c2.2,1.3,2.9,4.1,1.7,6.3C43.6,44.8,40.7,45.6,38.5,44.3z"/>
	<path class="st0" d="M63.4,50.3h-16c-1.9,0-3.4-0.1-4.6-0.3c-0.2,0-0.4,0-0.5,0.1c-0.6,0.4-1.2,0.8-1.9,1.2c-0.2,0.1-0.1,0.3,0,0.4
		c1.7,0.6,3.7,0.9,6.9,0.9h16c0.2,0,0.3-0.1,0.3-0.3v-1.5C63.7,50.4,63.5,50.3,63.4,50.3z"/>
	<path class="st0" d="M31.8,28.2c2,0,3.6-1.5,3.7-3.4c0-0.1-0.1-0.3-0.2-0.3c-1.1-0.4-2.3-0.6-3.5-0.6c-1.2,0-2.4,0.2-3.5,0.6
		c-0.1,0-0.2,0.2-0.2,0.3C28.2,26.7,29.8,28.2,31.8,28.2z"/>
	<path class="st0" d="M21.1,33.1c1.7,0.8,3.9,0.2,4.9-1.5c1-1.7,0.5-3.9-1.1-5c-0.1-0.1-0.3-0.1-0.4,0c-1.8,1.6-3,3.7-3.5,6.1
		C20.9,32.9,21,33,21.1,33.1z"/>
	<path class="st0" d="M37.2,30.3c0.3,1.6,1.3,2.7,2.8,3.1c0.9,0.2,1.8,0.2,2.6-0.2c0.1-0.1,0.2-0.2,0.2-0.4
		c-0.5-2.4-1.7-4.5-3.5-6.1c-0.1-0.1-0.3-0.1-0.4,0C37.7,27.5,37,28.8,37.2,30.3C37.2,30.3,37.2,30.3,37.2,30.3z"/>
	<path class="st0" d="M42.5,36.9c-0.5-0.2-1.1-0.4-1.6-0.4c-0.3,0-0.6,0-1,0.1c-1.4,0.4-2.5,1.5-2.8,3.1c0,0,0,0,0,0
		c-0.2,1.5,0.5,2.8,1.6,3.6c0.1,0.1,0.3,0.1,0.4,0c1.8-1.6,3-3.7,3.5-6.1C42.7,37.1,42.6,37,42.5,36.9z"/>
	<path class="st0" d="M22.7,36.5c-0.5,0-1.1,0.1-1.6,0.4c-0.1,0.1-0.2,0.2-0.2,0.4c0.5,2.4,1.7,4.5,3.5,6.1c0.1,0.1,0.3,0.1,0.4,0
		c1.6-1.1,2.1-3.3,1.1-5C25.3,37.2,24,36.5,22.7,36.5z"/>
	<path class="st0" d="M35.4,46.2c-0.2-0.1-0.4-0.2-0.6-0.3c-0.1-0.1-0.1-0.2,0-0.2l0.4-0.1c0.1,0,0.2-0.2,0.2-0.3
		c-0.2-1.9-1.8-3.4-3.7-3.4c-2,0-3.6,1.5-3.7,3.4c0,0.1,0.1,0.3,0.2,0.3c0.1,0,0.2,0.1,0.4,0.1c1.2,0.4,2.3,0.8,3.4,1.4
		c0.8,0.4,1.5,0.8,2.1,1.1c0.1,0.1,0.3,0.1,0.4,0c0.4-0.4,0.8-1,1-1.5C35.6,46.5,35.5,46.3,35.4,46.2z"/>
</g>
</svg>
