<svg version="1.1" xmlns="http://www.w3.org/2000/svg" xmlns:xlink="http://www.w3.org/1999/xlink" x="0px" y="0px"
	 viewBox="0 0 70 70" style="enable-background:new 0 0 70 70;" xml:space="preserve">
<style type="text/css">
	.st0{fill:#232323;}
</style>
<g>
	<path class="st0" d="M35,33.4c-5.9,0-11.3-0.4-16.1-0.9c-0.1,0-0.3,0.1-0.3,0.2c-0.5,1.3-1.1,2.7-1.6,4c-0.1,0.2,0.1,0.4,0.3,0.5
		c5.5,0.5,11.5,0.9,18,0.9c6.4,0,12.3-0.4,17.6-0.9c0.2,0,0.4-0.3,0.3-0.5c-0.6-1.3-1.1-2.7-1.7-4c-0.1-0.1-0.2-0.2-0.3-0.2
		C46.2,33,40.8,33.4,35,33.4z"/>
	<path class="st0" d="M20.5,24.4c-0.5-0.1-1-0.1-1.5-0.2c-0.2,0-0.4,0.1-0.4,0.3v6.8c0,0.2,0.1,0.3,0.3,0.3c0.4,0,1,0.1,1.5,0.2
		c0.2,0,0.4-0.1,0.4-0.3v-6.7C20.8,24.5,20.7,24.4,20.5,24.4z"/>
	<path class="st0" d="M20.5,9.9H19c-0.2,0-0.3,0.1-0.3,0.3v1c0,0.2,0.1,0.3,0.3,0.3c0.5,0.1,1,0.1,1.5,0.2c0.2,0,0.4-0.1,0.4-0.3
		v-1.2C20.8,10,20.7,9.9,20.5,9.9z"/>
	<path class="st0" d="M50.9,24.2c-0.5,0.1-1,0.1-1.5,0.2c-0.2,0-0.3,0.2-0.3,0.3v6.7c0,0.2,0.2,0.3,0.4,0.3c0.5-0.1,1.1-0.1,1.5-0.2
		c0.2,0,0.3-0.2,0.3-0.3v-6.8C51.3,24.3,51.1,24.2,50.9,24.2z"/>
	<path class="st0" d="M51,9.9h-1.5c-0.2,0-0.3,0.1-0.3,0.3v1.2c0,0.2,0.2,0.3,0.4,0.3c0.5-0.1,1-0.1,1.5-0.2c0.2,0,0.3-0.2,0.3-0.3
		v-1C51.3,10,51.1,9.9,51,9.9z"/>
	<path class="st0" d="M25.9,38.7c-0.8,0-1.6-0.1-2.4-0.1c-0.3,0-0.5,0.4-0.2,0.6l9.4,8.3c0.1,0.1,0.3,0.1,0.4,0l1.1-1
		c0.1-0.1,0.1-0.4,0-0.5l-8.1-7.2C26,38.7,25.9,38.7,25.9,38.7z"/>
	<path class="st0" d="M36,50.5l10.6,9.5c0.1,0.1,0.3,0.2,0.4,0.2l2.2,0c0.3,0,0.4-0.4,0.2-0.6L37.5,49c-0.1-0.1-0.3-0.1-0.4,0L36,50
		C35.8,50.1,35.8,50.3,36,50.5z"/>
	<path class="st0" d="M46.7,38.5c-0.8,0.1-1.6,0.1-2.4,0.1c-0.1,0-0.1,0-0.2,0.1l-9,8l-0.9,0.8l-13.4,12c-0.2,0.2-0.1,0.6,0.2,0.6
		l2.2,0c0.2,0,0.3-0.1,0.4-0.2L35,49.7l1-0.9l10.9-9.7C47.1,38.9,47,38.5,46.7,38.5z"/>
	<path class="st0" d="M34.8,13.3c-5.8,0-11.1-0.4-15.8-0.9c-0.2,0-0.4,0.1-0.4,0.3V23c0,0.2,0.1,0.3,0.3,0.3
		c4.8,0.6,10.2,1.1,16.2,1.1c5.9,0,11.3-0.4,16-1c0.2,0,0.3-0.2,0.3-0.3V12.7c0-0.2-0.2-0.3-0.4-0.3C46.1,13,40.7,13.3,34.8,13.3z"
		/>
</g>
</svg>
