<svg version="1.1" xmlns="http://www.w3.org/2000/svg" xmlns:xlink="http://www.w3.org/1999/xlink" x="0px" y="0px"
	 viewBox="0 0 70 70" style="enable-background:new 0 0 70 70;" xml:space="preserve">
<style type="text/css">
	.st0{fill:#232323;}
</style>
<path class="st0" d="M32.9,44.1v5.2l-22.8,3.1v3.1L35,53.4l24.8,2.1v-3.1L37,49.3v-5.2C37,44.1,32.9,44.1,32.9,44.1z M35,16.6
	c-11.4,0-30-2.1-30-2.1v31c0,0,17.6-2.1,30-2.1s30,2.1,30,2.1v-31C65,14.5,46.4,16.6,35,16.6z M63.5,43.9c0,0-16.7-1.9-28.5-1.9
	S6.5,43.9,6.5,43.9V16.2c0,0,17.7,1.9,28.5,1.9s28.5-1.9,28.5-1.9V43.9z M61.9,42.5c0,0-15.7-1.7-26.9-1.7S8.1,42.5,8.1,42.5V17.6
	c0,0,16.7,1.7,26.9,1.7s26.9-1.7,26.9-1.7V42.5z"/>
</svg>
