<svg version="1.1" xmlns="http://www.w3.org/2000/svg" xmlns:xlink="http://www.w3.org/1999/xlink" x="0px" y="0px"
	 viewBox="0 0 70 70" style="enable-background:new 0 0 70 70;" xml:space="preserve">
<style type="text/css">
	.st0{fill:#232323;}
</style>
<path class="st0" d="M35,12.9c-12.2,0-22.1,9.9-22.1,22.1c0,12.2,9.9,22.1,22.1,22.1c12.2,0,22.1-9.9,22.1-22.1
	C57.1,22.8,47.2,12.9,35,12.9z M38.9,33.5c-0.1-0.4,0.2-1,0.2-1c0.2-0.5,0.2,0.2,0.2,0.2c0,0.3,0.2,0.8,0.2,0.8
	c0.1,0.3,0.2,1.2,0.3,1.5c-0.2,0-0.4,0-0.7,0c0,0,0-0.1,0-0.1C39.2,34.7,38.9,33.5,38.9,33.5z M35.6,48.7c0,0.1,0,0.4-0.1,0.8v-0.9
	c0,0-0.2,0-0.3,0c0-0.1,0-2.6,0-2.7c0,0,0.1,0,0.2,0C35.5,46.5,35.6,48.7,35.6,48.7z M35.2,44.7c0,0.3,0.1,0.6,0.1,0.8
	c-0.1,0-0.1,0-0.1,0C35.2,45.5,35.2,45.1,35.2,44.7z M34.9,44.1c0,0,0-0.1,0-0.1c0,0.7,0,1.5,0,1.5c0,0-0.2,0-0.4,0
	C34.7,45,34.9,44.1,34.9,44.1z M15.6,34.7c0.1-10.5,8.6-19,19.1-19.2v0v0.9c-1.9,0.6-1.2,3.2-1.2,3.2c-0.3-0.1-0.1,0.9-0.1,0.9
	c0.1,0.5,0.4,0.7,0.4,0.7c0,0.4,0.2,1,0.2,1c0.1,0.3-0.2,1-0.2,1c-0.4,0.4-1.2,0.6-1.2,0.6c-0.7,0.2-1,0.3-1,0.3
	c-0.5,0-1.4,0.6-1.4,0.6c-0.7,0.4-0.8,2.5-0.8,2.5c0,0.3-0.8,3.7-0.8,3.7c-0.2,0.4-0.1,1.3-0.1,1.3c0.2,0.2-0.1,1.1-0.1,1.1
	c-0.1,0.2-0.1,0.9-0.1,1.5c-0.6,0-1.2,0-1.2,0c0-0.1,0-0.8,0-0.8h-0.3c0,0,0,0.7,0,0.8c-0.1,0-2.2,0-2.3,0c0-0.1,0-3.3,0-3.3h-0.3
	c0,0,0,3.2,0,3.3c-0.1,0-3.3,0-3.4,0c0-0.1,0-0.3,0-0.3H15.6L15.6,34.7z M31.3,35c-0.2,0-0.4,0-0.7,0c0.1-0.5,0.3-1.5,0.3-1.5
	c0.2-1,0.2-0.2,0.2-0.2c0.1,0.3,0.1,1.6,0.1,1.6C31.3,34.9,31.3,35,31.3,35z M15.6,35.6L15.6,35.6h5.2c0,0,0-0.2,0-0.3
	c0.1,0,3.3,0,3.4,0c0,0.1,0,3.3,0,3.3h0.3c0,0,0-3.2,0-3.3c0.1,0,2.2,0,2.3,0c0,0.1,0,0.8,0,0.8H27c0,0,0-0.7,0-0.8
	c0.1,0,0.7,0,1.2,0c0,0.5,0,0.8,0,0.8c0.1,0.3,0.1,1,0.1,1c-0.2,0.3,0,1.4,0,1.4c0.1,0.6,0.1,1.4,0.1,1.4c0.1,0.3-0.1,1.1-0.1,1.1
	c-0.1,0.4,0.1,0.8,0.1,0.8c0.1,0.2,0.2,0.6,0.2,0.6c0.2,0.3,0.7,0.5,0.7,0.5c0.4,0.2,0.9,0,0.9,0c0.1-0.1,0-0.4,0-0.4
	c0-0.1-0.1-0.3-0.1-0.3c0-0.2-0.1-0.4-0.1-0.4c0-0.2-0.1-1.1-0.1-1.1c0-0.3-0.1-0.8-0.1-0.8c-0.1-0.4,0.2-1.9,0.2-1.9
	c0-0.5,0.3-2.2,0.4-2.8c0.2,0,0.5,0,0.7,0c0,0.6-0.1,1.4-0.1,1.4c-0.2,0.4-0.6,3.6-0.6,3.6c-0.1,0.4,0.1,2.8,0,3.7c0,0,0,0,0,0
	c0,0.9,0.2,3.8,0.2,3.8c0.1,0.5-0.1,1.2-0.1,1.2c-0.2,0.3-0.2,1.2-0.2,1.2c-0.1,0.6,0.2,1.4,0.2,1.4c0.2,0.9,0.3,2.1,0.3,2.1
	c0.1,0.1,0.1,0.2,0.1,0.4C22.5,52.4,15.9,44.8,15.6,35.6z M34.6,54.4L34.6,54.4c-0.2,0-0.4,0-0.5,0C34,54.2,33.9,54,33.9,54
	c-0.3-0.4,0.1-0.9,0.1-0.9c0.3-0.4,0.1-2.7,0.1-2.7c-0.1-0.6,0.3-1.3,0.3-1.3c0.3-0.5,0.2-1.9,0.2-1.9c-0.1-0.3-0.1-1.3-0.1-1.3
	c0,0,0,0,0,0c0.2,0,0.4,0,0.4,0c0,0.1,0,2.6,0,2.7c-0.1,0-0.3,0-0.3,0V54.4z M38.3,54.1c0.1-1,0.3-2.2,0.3-2.2
	c0.1-0.5,0.1-2.2,0.1-2.2s0,0.4,0,0c0-0.4,0-2.8,0-2.8c0-0.3,0.2-1.8,0.2-1.8c0.1-0.6,0.5-2.7,0.5-2.7c0-0.5-0.1-3-0.1-3
	c0-0.5-0.3-2.8-0.3-2.8c0-0.2,0-0.8,0-1.2c0.2,0,0.5,0,0.7,0c0.1,0.4,0.1,1,0.1,1c0,0.3,0.2,1.3,0.2,1.3c0.1,0.3,0.1,1.9,0.1,1.9
	c0,0.3-0.2,1-0.2,1c-0.1,0.2-0.2,0.7-0.2,0.7c0,0.2,0,0.6,0,0.6c-0.1,0.5,0,1,0,1c0,0.3,0.4,0.3,0.4,0.3c0,0,0,0,0,0v0.5
	c-0.4,0.1-0.7,0.5-0.7,0.9v6.8c0,0.5,0.4,0.9,0.9,0.9c0.5,0,0.9-0.4,0.9-0.9v-6.8c0-0.4-0.3-0.8-0.7-0.9v-0.4c0.3,0,0.5-0.4,0.5-0.4
	c0.1-0.2,0.5-0.5,0.5-0.5c0.4-0.4,0.3-1.1,0.3-1.4c0,0,0,0,0,0c-0.1-0.4-0.1-1.7-0.1-1.7c0-0.3,0.3-1.1,0.3-1.1c0.2-0.5,0-2.3,0-2.3
	c0-0.1,0-0.3,0-0.4c0.5,0,0.8,0,0.9,0c0,0.1,0,0.8,0,0.8h0.3c0,0,0-0.7,0-0.8c0.1,0,2.3,0,2.4,0c0,0.1,0,3.3,0,3.3H46
	c0,0,0-3.2,0-3.3c0.1,0,2.6,0,2.7,0c0,0.1,0,0.3,0,0.3h5.7h0C54.1,44.9,47.3,52.6,38.3,54.1z M48.8,34.7c0,0,0,0.2,0,0.3
	c-0.1,0-2.6,0-2.7,0c0-0.1,0-3.3,0-3.3h-0.3c0,0,0,3.2,0,3.3c-0.1,0-2.3,0-2.4,0c0-0.1,0-0.8,0-0.8h-0.3c0,0,0,0.7,0,0.8
	c0,0-0.4,0-0.9,0c0-0.5-0.1-0.9-0.1-0.9c-0.1-0.3,0.1-0.9,0.1-0.9c0.1-0.4,0-2,0-2c0-0.8-0.8-3.4-0.8-3.4c-0.1-0.4-0.6-2.4-0.6-2.4
	c-0.3-0.8-3.7-2-3.7-2c-0.3-0.2-0.1-1-0.1-1c0.1-0.2,0.4-1.3,0.4-1.3c0.2,0.1,0.5-1.3,0.5-1.3c-0.1-0.2-0.2-0.1-0.2-0.1
	c0.7-3.1-1.5-3.4-2.1-3.4v-0.8v0c10.4,0.3,18.8,8.7,18.9,19.2h0H48.8z"/>
</svg>
