<svg version="1.1" xmlns="http://www.w3.org/2000/svg" xmlns:xlink="http://www.w3.org/1999/xlink" x="0px" y="0px"
	 viewBox="0 0 70 70" style="enable-background:new 0 0 70 70;" xml:space="preserve">
<style type="text/css">
	.st0{fill:#232323;}
</style>
<g>
	<polygon class="st0" points="35.9,8.7 35.9,11.6 40.7,11.6 39.4,10.2 40.7,8.7 	"/>
	<path class="st0" d="M35.4,13.9V8.7c0-0.1-0.1-0.2-0.2-0.2s-0.2,0.1-0.2,0.2v5.2c0.1,0,0.2,0,0.2,0C35.2,13.8,35.3,13.9,35.4,13.9z
		"/>
	<path class="st0" d="M50.4,59.2v-2.4c0,1.3-6.9,2.4-15.3,2.4s-15.3-1-15.3-2.4v2.4c0,1.3,6.9,2.4,15.3,2.4S50.4,60.5,50.4,59.2z"/>
	<path class="st0" d="M36.1,53.9v1.6c0.7,0.1,1.2,0.4,1.2,0.7c0,0.4-1,0.8-2.2,0.8c-1.2,0-2.2-0.3-2.2-0.8c0-0.3,0.5-0.5,1.2-0.7
		v-1.6c-8,0.1-14.3,1.1-14.3,2.4c0,1.3,6.9,2.4,15.3,2.4s15.3-1.1,15.3-2.4C50.4,55.1,44,54,36.1,53.9z"/>
	<path class="st0" d="M34.4,29.8v10.9c0.5-0.1,0.9-0.3,1.2-0.4V29.8h-0.4l0.2,0.2v1.4l-0.8-0.5v-1.1H34.4z M35.4,39.3l-0.8-0.5v-1.4
		l0.8,0.5V39.3z M35.4,33.9v1.4l-0.8-0.5v-1.4L35.4,33.9z"/>
	<path class="st0" d="M34.4,55.7c0,0.3,0.3,0.6,0.6,0.6s0.6-0.3,0.6-0.6v-0.2v-7.2c-0.4,0-0.8,0.1-1.2,0.1v7.1V55.7z M34.6,49.1
		l0.8,0.5v1.4l-0.8-0.5V49.1z M34.6,53.1l0.8,0.5v1.5l-0.8-0.5V53.1z"/>
	<path class="st0" d="M50,49.6c-0.2-3.1-4-5.5-7.1-5.7c0,0.2-0.1,0.3-0.2,0.5c0,0.4,0,0.8,0.1,1.2c0.2,0,0.4,0.1,0.6,0.2
		c1.9-0.5,5.1,0.5,4.4,2.9C48.4,48.9,49.4,49.4,50,49.6z"/>
	<path class="st0" d="M46.5,35.4L46.5,35.4c0.1,0.4,0.2,0.7,0.3,1.1l4.7-3.1L46.5,35.4z"/>
	<path class="st0" d="M45.5,33.9c-2.4-4.5-7.2,1.7-8.7,3.8l0,2.2c1-0.7,1.6-1.7,2.6-3.2C40.7,34.5,43,32.3,45.5,33.9z"/>
	<path class="st0" d="M25.2,41.9l0.8,0.2c0.3-0.2,0.6-0.3,1-0.4c-1.1-0.9-2.4-1.8-3.5-1.6c-1.5,0.3-1.9,2.6-2,3.9
		c-0.1,1.2-0.2,2.3-1.6,2.5c-0.6,0.1-1.2,0-1.9,0.1c1.7,1.5,3.4,1.8,4.9,0.8c1-0.7,1.4-1.9,1.2-3.7C23.9,42.4,24.1,41.6,25.2,41.9z"
		/>
	<path class="st0" d="M23.1,51.8c0.2-0.9,0.7-1.6,2-1.8c3.4-0.4,3,0.1,5.4-2.4c2.5,0.5,5.1,0.3,7.8-0.2c1.7,0.9,3.8,0.9,6,0.4
		c1.3,0.8,3.3,2.3,2.3,4.1c0.6,0.3,1.2,0.6,1.9,1c0.2-3.2-2.6-6.4-6-7.1c0-0.4,0-0.8-0.1-1.2c0.2-0.5,0.4-1.2,0.1-2.2
		c-0.3-1.9,0-3.9,1.1-5.7c0.1,1.2,0.4,2.2,1.6,2.5c-1,2.6,1.9,3.6,1.9-0.4c0-1.2-0.4-2.4-0.8-3.8c0.3-0.3,0.6-0.6,0.6-1.2
		c-0.5,0-0.9,0.1-1.2,0.4c-2.5-1.6-4.8,0.5-6.2,2.8c-1.7,2.7-2.6,3.9-6.1,4.5c-4.2,0.8-8.3-0.8-8.2,3.5c0.4,1.9,0.1,3.2-1.2,3.8
		c-1.1,0.4-1.6,1.4-1.5,2.8c-0.5,0.9-1,1.4-1.9,1.1c-0.4,0.5-0.8,1-1.2,1.5C21.4,53.7,22.2,54,23.1,51.8z M33.3,41.7
		c0.5-0.1,0.9-0.2,1.3-0.3c0.1,0,0.1,0,0.2,0c0.5-0.2,1-0.3,1.4-0.6c0.1,0.2,0.1,0.4,0.2,0.6c0.1,1.3-0.8,2.5-2.1,2.6L32,44.3
		c-1.3,0.1-2.5-0.8-2.6-2.1c0-0.1,0-0.1,0-0.2C30.6,41.9,31.9,41.9,33.3,41.7z"/>
	<path class="st0" d="M31.9,43.8l2.2-0.2c0.4,0,0.8-0.2,1.1-0.5c0.1,0,0.1-0.1,0.1-0.2c0.4-0.4,0.6-0.9,0.5-1.5c0,0,0,0,0,0
		c-0.2,0.1-0.4,0.2-0.7,0.2c-0.2,0.1-0.4,0.2-0.7,0.2c-0.4,0.1-0.8,0.2-1.2,0.3c-1.2,0.2-2.4,0.2-3.6,0.3C30.1,43.3,31,44,31.9,43.8
		z"/>
	<path class="st0" d="M33.9,16.4c0-0.1-0.1-0.1-0.1-0.2c0,0,0,0,0,0c0,0-0.1-0.1-0.1-0.1L17.5,26.7h2.9h0.2h2.9h0.2h2.6h0.4h3.1h0.3
		h2.2h0.2h2.6h0.4h1.9h0.3h2.7h0.3h2.4h0.3h3.2H47h2.1h0.5h3.1L36.6,16.1c0,0.1-0.1,0.1-0.1,0.1c0,0,0,0,0,0c0,0-0.1,0.1-0.1,0.1
		c0,0,0,0,0,0c-0.1,0.1-0.1,0.2-0.2,0.2c0,0,0,0,0,0c-0.1,0.1-0.2,0.1-0.2,0.2c0,0,0,0,0,0c-0.1,0.1-0.2,0.1-0.4,0.1c0,0,0,0,0,0
		c-0.1,0-0.2,0.1-0.3,0.1c0,0,0,0,0,0c0,0,0,0-0.1,0c-0.1,0-0.3,0-0.4-0.1c0,0,0,0,0,0c-0.1,0-0.2-0.1-0.3-0.1c0,0,0,0,0,0
		c-0.1-0.1-0.2-0.1-0.3-0.2c0,0,0,0,0,0C34,16.5,33.9,16.4,33.9,16.4C33.9,16.4,33.9,16.4,33.9,16.4z M23.5,26.5h-2.2l11-8.8
		L23.5,26.5z M52,26.5h-2.3l-10.7-8.6L52,26.5z M43.5,26.5l-6.7-9.3l9.3,9.3H43.5z M40,26.5h-2.2l-2.1-9.4L40,26.5z M34.9,17.1v9.4
		h-2.1L34.9,17.1z M29.7,26.5h-2.5l6.8-9.5L29.7,26.5z"/>
	<path class="st0" d="M19.3,29.2h31.3c1.1,0,2-0.9,2-2H17.3C17.3,28.3,18.2,29.2,19.3,29.2z"/>
	<path class="st0" d="M34,15.4c0,0.1,0,0.2,0.1,0.4c0,0,0,0.1,0,0.1c0,0,0,0,0,0c0,0,0.1,0.1,0.1,0.1c0,0,0,0,0,0
		c0,0,0.1,0.1,0.1,0.1c0,0,0,0,0,0c0.1,0.1,0.1,0.1,0.2,0.2c0,0,0,0,0,0c0.1,0,0.1,0.1,0.2,0.1c0,0,0,0,0,0c0.1,0,0.2,0.1,0.3,0.1
		c0,0,0,0,0,0c0,0,0,0,0,0c0.1,0,0.2,0,0.2,0c0,0,0,0,0,0c0.1,0,0.2-0.1,0.3-0.1c0,0,0,0,0,0c0.1,0,0.1-0.1,0.2-0.1c0,0,0,0,0,0
		c0.1-0.1,0.1-0.1,0.1-0.2c0,0,0,0,0,0c0,0,0-0.1,0.1-0.1c0,0,0,0,0,0c0,0,0-0.1,0.1-0.1c0.1-0.1,0.1-0.3,0.1-0.4
		c0-0.6-0.4-1-0.9-1.1c-0.1,0-0.2,0-0.2,0c-0.1,0-0.2,0-0.2,0C34.4,14.4,34,14.9,34,15.4z"/>
</g>
</svg>
