<svg version="1.1" xmlns="http://www.w3.org/2000/svg" xmlns:xlink="http://www.w3.org/1999/xlink" x="0px" y="0px"
	 viewBox="0 0 70 70" style="enable-background:new 0 0 70 70;" xml:space="preserve">
<style type="text/css">
	.st0{fill:#232323;}
</style>
<g>
	<path class="st0" d="M43.9,21.7c0,0.8-0.1,1.5-0.2,2.2c-2.9-1.1-6.3-1.8-9.9-2.1c-0.4-1.6-0.6-3.3-0.8-4.4c0-0.3-0.1-0.5-0.1-0.7
		c-0.2-1.4-0.7-2.2-1.1-2.6l0-6.1c5.5,0.7,9.9,5,10.7,10.5c0.4,0.2,0.7,0.3,1.1,0.5C43.8,19.8,43.9,20.7,43.9,21.7z M27.6,17.4
		c0-0.3,0.1-0.5,0.1-0.7c0.2-1.4,0.7-2.2,1.1-2.6V7.9c-5.5,0.7-9.9,5-10.7,10.5c-0.4,0.2-0.7,0.3-1.1,0.5c-0.2,0.9-0.3,1.8-0.3,2.7
		c0,0.8,0.1,1.5,0.2,2.2c2.9-1.1,6.3-1.8,9.9-2.1C27.2,20.2,27.4,18.5,27.6,17.4z M39.9,23.5c-0.9,1.3-2.4,2.4-4.1,2.3
		c-1.2-0.1-2-1.5-2.5-3.4l0,0l0-0.1c-0.5-1.9-0.8-4.2-1-5.6c0,0,0,0,0,0c0-0.1,0-0.2-0.1-0.3c0,0,0,0,0,0c-0.2-0.8-0.4-1.4-0.8-1.8
		l-0.1-0.1c-0.1,0-0.1-0.1-0.1-0.1l0-9.1h-1.5l0,9.1c0,0-0.1,0.1-0.2,0.1l-0.1,0.1c-0.4,0.4-0.7,1-0.8,1.8c0,0,0,0,0,0
		c0,0.1,0,0.2-0.1,0.3c0,0.1,0,0.2,0,0.3c0,0,0,0.1,0,0.1c0,0.1,0,0.1,0,0.2c-0.2,1.4-0.4,3.3-0.9,5l0,0.1l0,0
		c-0.5,1.8-1.3,3.3-2.5,3.4c-1.7,0.1-3.2-1-4.1-2.3c-1,0.2-2,0.5-2.9,0.9c0.3,3,1.5,5.9,4.4,7c3.4,1.3,5.9,1.9,8.1,4
		c2.2-2.1,4.7-2.8,8.1-4c2.8-1,4-4,4.4-7C41.9,24,40.9,23.8,39.9,23.5z M43.1,24.4c-0.4,7.5-6.9,9.5-6.9,9.5s-0.3,4.4-0.9,10.8
		c4-0.9,6.6-4.9,6.9-6.9c0.2-1.7,1.1-10.2,1.3-13.2C43.5,24.5,43.3,24.5,43.1,24.4z M17,24.6c0.3,3,1.1,11.6,1.3,13.2
		c0.3,2,3,6.1,6.9,6.9C24.7,38.4,24.4,34,24.4,34s-6.4-2-6.9-9.5C17.3,24.5,17.2,24.5,17,24.6z"/>
	<path class="st0" d="M37.8,57.1l-3.9-3.6l25.3-21.9l2.1-11.8L49.7,23L30.3,50.3l-3.9-3.6l-1.5,1.7l4.4,4c-0.2,0.1-0.3,0.2-0.4,0.3
		l-7.7,7.6c-0.9,0.9-1.2,2.1-0.6,2.6l1.6,1.5c0.6,0.5,1.7,0.1,2.5-0.8l6.9-8.4c0.1-0.1,0.2-0.3,0.3-0.5l4.4,4L37.8,57.1z M32.3,51.4
		l-1-0.9l19-26.7l9.5-2.6L32.3,51.4z"/>
</g>
</svg>
