<svg version="1.1" xmlns="http://www.w3.org/2000/svg" xmlns:xlink="http://www.w3.org/1999/xlink" x="0px" y="0px"
	 viewBox="0 0 70 70" style="enable-background:new 0 0 70 70;" xml:space="preserve">
<style type="text/css">
	.st0{fill:#232323;}
</style>
<g>
	<path class="st0" d="M59.2,52.9c-3.6-3.8-9.8-10.4-14.8-16.4c-0.5,0.5-3.4,4.5-4.6,5.7c0.1,0.1,0.4,0.8,2.3,1.2
		c1.9,0.4,3.2,2.6,4,4.7c0.8,2.1,5.1,4.6,6.9,5.8c1.8,1.2,0.6,1.5,0.4,3C59.6,60.2,60.6,54,59.2,52.9z M57.9,55.9
		c0.2-0.9,0-1.8-0.4-2.1c-3.1-3.3-13.5-15-13.6-15.1c0.5-0.5,0.6-0.6,0.8-0.8C49,43.1,54.9,49.4,58,52.7
		C58.6,53.2,58.7,54.8,57.9,55.9z M28.9,17.2c-3-4.7-3.5-6.1-5.1-4.6C22.1,14.2,14.3,20,10.3,24c-0.4,0.4,0.8,2.4,2.8,4.9l1.3,0.5
		c0.9,0.3,1.8,1,2.5,1.6c0.3,0.2,0.5,0.4,0.8,0.6c0.5,0.4,1.2,0.5,1.9,0.6c1,0.2,2.1,0.4,3,1.4c0.5,0.5,1,1.2,1.4,1.7
		c0.4,0.5,0.8,1,1.2,1.5c0.4,0.4,1.1,0.6,1.9,0.8c0.8,0.2,1.5,0.4,2.2,0.8c0.6,0.4,1.4,0.5,2.3,0.7l0.4,0.1c2.1,0.3,4.8,1.5,6.6,2.6
		l0.2,0.1c0.1-0.1,0.2-0.2,0.2-0.2s3.4-3.5,5-5.4C37.3,28,30.5,19.7,28.9,17.2z M24.5,17.1c-0.8,0-1.4-0.6-1.4-1.4
		c0-0.8,0.6-1.4,1.4-1.4c0.8,0,1.4,0.6,1.4,1.4C25.9,16.5,25.3,17.1,24.5,17.1z M32,39.9c1.9,0.3,4.5,1.4,6.3,2.5
		c-0.6,0.6-1.6,1.4-2.5,2.2c-1.9,1.8-3.4,2.5-3.8,3c-0.8,1,1.2,3.9,1.2,4.6c0,0.8-0.6,1.4-1.4,1.4c-0.8,0-1.4-0.6-1.4-1.4
		c0-1.1,2-3.9,1-4.5c-0.1-0.1-0.2-0.2-0.4-0.3c-2.7-1.7-11.6-10.8-16.7-17.1c1.2,0.4,2.2,1.5,3.1,2.1c1.5,1,3.5,0.5,4.8,1.9
		c1,1,1.7,2.2,2.7,3.2c1.1,1.1,3,0.8,4.2,1.7C29.8,39.6,30.9,39.7,32,39.9z"/>
</g>
</svg>
