<svg version="1.1" xmlns="http://www.w3.org/2000/svg" xmlns:xlink="http://www.w3.org/1999/xlink" x="0px" y="0px"
	 viewBox="0 0 70 70" style="enable-background:new 0 0 70 70;" xml:space="preserve">
<style type="text/css">
	.st0{fill:#232323;}
</style>
<path class="st0" d="M56,49.9L56,49.9L56,49.9l-0.1-0.1l-1.1-0.4l-1.1,0.4h-0.1v0.1h0l-0.2,0.5h-0.2v-0.1h0v-0.1h0v-0.5h0.1v-0.1
	h-0.1v0H53v0h-0.1v0.1H53v0.5h0v0.1h0v0.1h-2.3h-0.4h0V50h0.1l0-0.1l-0.2-0.1v-0.1l0-0.1h-0.2v-0.1l0-0.1l-0.1-0.1h0
	c0,0,0,0-0.1-0.1V49l0,0l0,0v-1.2c0,0,0,0,0-0.1c0,0,0,0,0,0c0,0,0.3-0.2,0-0.4V47l0,0v-0.4l0,0l0-0.1H50v0l0,0c0,0,0-0.2-0.1-0.2
	c0,0,0,0,0-0.1c0,0,0,0,0,0c0,0,0,0,0,0c0,0,0,0,0,0c0,0,0,0,0,0c0,0,0,0,0,0c0,0,0,0,0,0c0,0,0,0,0,0c0,0,0,0,0,0c0,0,0,0,0,0.1
	c0,0,0,0,0,0c0,0-0.2-0.5-0.7-0.8c0,0,0.2-0.1,0.1-0.2v-0.1c0,0,0.1-0.1-0.2-0.2c0,0,0-0.1,0-0.1v-0.5l0,0v-0.1c0,0,0.1,0,0-0.1
	c0,0,0,0,0,0c0,0,0-0.1,0-0.1c0,0,0,0,0,0c0,0,0,0,0,0c0-0.1,0-0.2-0.1-0.1l0,0c0,0,0-0.1-0.1-0.2c0,0,0,0,0,0v0c0,0,0,0,0,0v-0.3h0
	v0.3c0,0,0,0,0,0v0c0,0,0,0,0,0c-0.1,0-0.1,0.2-0.1,0.2l0,0c0-0.1-0.1,0.1-0.1,0.1c0,0,0,0,0,0c0,0,0,0,0,0c-0.1,0,0,0.1,0,0.1
	c0,0,0,0,0,0c0,0.1,0,0.1,0,0.1v0.1l0,0v0.5c0,0,0,0.1,0,0.1c-0.3,0.1-0.2,0.2-0.2,0.2v0.1c-0.1,0.1,0.1,0.2,0.1,0.2
	c-0.5,0.3-0.7,0.8-0.7,0.8c0,0,0,0,0,0c0,0,0-0.1,0-0.1c0,0,0,0,0,0c0,0,0,0,0,0c0,0,0,0,0,0c0,0,0,0,0,0c0,0,0,0,0,0c0,0,0,0,0,0
	c0,0,0,0,0,0c0,0,0,0,0,0c0,0,0,0,0,0.1c-0.1,0-0.1,0.2-0.1,0.2l0,0v0h-0.1l0,0.1l0,0V47l0,0v0.2c-0.3,0.2,0,0.4,0,0.4c0,0,0,0,0,0
	c0,0.1,0,0.1,0,0.1V49l0,0l0,0v0.2c-0.1,0.1-0.1,0.1-0.1,0.1h0l-0.1,0.1l0,0.1v0.1H47l0,0.1v0.1l-0.2,0.1l0,0.1H47v0.4h-0.4h-1.5
	c0.1-0.9,0.1-1.5,0.1-1.5c-0.2-0.7-0.1-1.6-0.1-1.6c0.2-0.7,0-2.2,0-2.2c0-0.4,0.4-1.8,0.4-1.8c0.3-1.2,0.8-3,0.8-3l0.3,0.1
	c0-0.3,0-0.4,0-0.4c-0.2-0.6,0-2.2,0-2.2c0.3-0.7,0.2-1,0.2-1c-0.1-0.4,0-0.9,0-0.9c0.2-0.3,0-0.6,0-0.6c0-0.4,0.1-0.8,0.1-0.8
	c0.3-1.4,0.1-4,0.1-4c0.1-0.5,0.7-1.8,0.7-1.8c0.6-1.6-0.2-3.1-0.2-3.1c-0.4-1.3-1.6-2.1-1.6-2.1c0.1-1.1-0.4-1.6-0.4-1.6
	c-0.3-0.3-0.9,0.1-0.9,0.1l-0.1-0.1c-0.4-0.7,0.2-1.4,0.2-1.4c0.6-1.5-0.4-2.9-0.4-2.9c-0.7-1.2-3-0.6-3-0.6
	c-1.3,0.2-1.7,1.2-1.7,1.2c-0.2,0.4,0.1,0.2,0.1,0.2c0,0.2,0,0.3,0,0.3c-0.3,0.4-0.2,1.2-0.2,1.2c-0.2,0.3-0.4,0.4-0.4,0.4
	c-0.1,0.1-0.5-0.1-0.5-0.1c0-0.3-0.2-0.6-0.2-0.6c-0.1-0.2-0.8-0.9-0.8-0.9c-1-0.9-3.3,0.4-3.3,0.4c-1.2,0.6-1.1,1.8-1.1,1.8
	c0.1,0.3,0,0.9,0,0.9c-0.1,0.6,0.2,1.1,0.2,1.1c0,1.1,0.7,1.3,0.7,1.3c-0.6-0.7-0.1-1-0.1-1c0,0.8,0.3,0.9,0.3,0.9
	c-0.2-0.4,0.1-0.8,0.1-0.8c-0.1,0.5,0.1,0.7,0.1,0.7c-0.1-0.1,0.2-0.4,0.2-0.4c0,0.3-0.2,0.7-0.2,0.7c-1.5,0.6-1.3,2.1-1.3,2.1
	c-0.1,1,0.8,5.7,0.8,5.7c-0.5,0.4,0.3,0.8,0.3,0.8c-0.6,0.2,0.2,0.7,0.2,0.7c-0.4,0.2,0.1,0.5,0.1,0.5l0,0.1
	c-0.7,0.1-0.1,0.5-0.1,0.5c-0.2,0.7-0.8,1.5-0.8,1.5c-1.8,2.1-1,6.4-1,6.4l0.4,0.1c0.2,0.5,1.6,3.7,1.6,3.7c-0.1,0.8,0,3,0,3
	c-0.2,0-0.4,0.1-0.6,0.2c-0.1-0.2-0.5-1-0.6-1.4h-0.5v-0.6c0,0,0.1-0.1,0.2-0.3h-0.2l-0.4-0.4L31,44.3l-0.1-0.3l-0.1-0.7v-0.2h0
	c0,0,0,0,0,0c0,0,0,0,0,0h0v0h0v-0.3l0.1,0.1l0,0l0,0l-0.1-0.1c0,0,0,0,0,0h0.1v0c0,0,0,0,0,0c0,0,0,0,0,0v0h0c0,0,0,0,0,0
	c0,0,0,0,0,0h0v0c0,0,0,0,0,0c0,0,0,0,0,0v0h-0.1c0,0,0,0,0,0l0.1-0.1l0,0l0,0l-0.1,0.1v-0.1h0c0,0,0,0,0,0c0,0,0,0,0,0h0v0
	c0,0,0,0,0,0c0,0,0,0,0,0v0h0c0,0,0,0,0,0c0,0,0,0,0,0h0v0.1c0,0,0,0,0,0l-0.1-0.1l0,0l0,0l0.1,0.1h-0.1v0c0,0,0,0,0,0c0,0,0,0,0,0
	v0h0c0,0,0,0,0,0c0,0,0,0,0,0h0v0c0,0,0,0,0,0c0,0,0,0,0,0v0h0.1l-0.1,0.1l0,0l0,0l0.1-0.1V43h0v0h0c0,0,0,0,0,0c0,0,0,0,0,0h0v0.2
	l-0.1,0.7l-0.1,0.3l-2.1,2.5l-0.4,0.4H28c0,0.2,0.2,0.3,0.2,0.3v0.6h-0.5c0,0.1-0.1,0.3-0.2,0.6l-1.1,0.7h-0.2h0c0,0,0-0.2-0.1-0.2
	l0-0.1v0c0,0-0.2,0-0.1-0.2c0,0,0,0,0-0.1v-0.1c0,0,0-0.1-0.1-0.1l0-0.1c0,0,0,0,0,0c0,0,0,0,0,0l0,0h0h0h0l0,0c0,0,0,0,0,0
	c0,0,0,0,0,0l0,0.1c-0.1,0-0.1,0.1-0.1,0.1v0.1c0,0.1,0,0.1,0,0.1c0.1,0.2-0.1,0.2-0.1,0.2v0l0,0.1c-0.1,0-0.1,0.1-0.1,0.2h-0.2V48
	l0.1-0.2l-0.2-0.2v-2.2h0.1l-0.1-0.1v-0.1h0.1l0.1-0.2h-0.1l0-0.1l0-0.1h-0.1l0-0.2l0.2-0.2l0-0.1h-0.2l0.1-0.1L25.2,44
	c0,0,0-0.9-1.1-1.2v-0.1l-0.1-0.2c0,0-0.2-0.1,0-0.2c0,0,0.2-0.1,0-0.2c0,0-0.1,0-0.2-0.6V41h0.4v0h-0.4v-0.3h0v0.3h-0.4v0h0.4v0.5
	c-0.1,0.6-0.2,0.6-0.2,0.6c-0.2,0.1,0,0.2,0,0.2c0.2,0.1,0,0.2,0,0.2l-0.1,0.2v0.1c-1.1,0.3-1.1,1.2-1.1,1.2l-0.2,0.3l0.1,0.1H22
	l0,0.1l0.1,0.2l0,0.2h-0.1l0,0.1l0,0.1h-0.1l0.1,0.2h0.1v0.1l-0.1,0.1h0.1v2.2l-0.2,0.2l0.1,0.2v1.4H22c0,0,0-0.2-0.1-0.2l0-0.1v0
	c0,0-0.1,0-0.1-0.2c0,0,0,0,0-0.1v-0.1c0,0,0-0.1-0.1-0.1l0-0.1c0,0,0,0,0,0c0,0,0,0,0,0l0,0h0h0h0l0,0c0,0,0,0,0,0c0,0,0,0,0,0
	l0,0.1c-0.1,0-0.1,0.1-0.1,0.1v0.1c0,0.1,0,0.1,0,0.1c0.1,0.2-0.1,0.2-0.1,0.2v0l0,0.1c-0.1,0-0.1,0.1-0.1,0.2h0h-0.3v0.1h0.2v1.1
	h-0.1l0,0.2H21l0.2,0.2h0.1l0.1,0.1v0.2h-0.1l0.1,0.1v1.2h0l-1-0.2v-1.5c0,0,0,0,0,0c0,0,0,0,0,0v-1.2l0.1-0.1h-0.1v-4.3v0v-0.1h0
	v-0.4h0.2l-0.1-0.1l0,0l-0.1-0.1l0,0L20,44.3l0,0l-0.1-0.1l0,0h0l0,0l0-0.1l-0.1-0.1v-0.1c0,0,0-0.1-0.2-0.1c-0.2,0-0.2,0.1-0.2,0.1
	v0.1L19.2,44l0,0.1l0,0h0l0,0l-0.1,0.1l0,0L19,44.5l0,0l-0.1,0.1l0,0l-0.1,0.1H19v0.4h-0.2v-3.7c0-0.1,0.3-0.1,0.3-0.1v-0.1h-0.3v0
	v-0.3h0v-0.2v0v-0.3h0l0-0.1l0,0l0-0.1l0,0l-0.1-0.1l0,0L18.5,40l0,0l-0.1-0.1l0,0l-0.1-0.1h0v0c0,0,0.1,0,0-0.1c0,0,0,0,0-0.1
	c-0.1,0,0,0.1,0,0.1c0,0,0,0,0,0v-0.5c0.1,0,0.2,0,0.2,0v0h-0.2v-0.1h0.1l-1.2-1.5c0,0,0.1,0,0.1-0.1c0-0.1-0.1-0.1-0.1-0.1
	c-0.1,0-0.1,0-0.1,0.1c0,0,0,0.1,0.1,0.1l-1.2,1.5h0.1V39h-0.2v0c0,0,0.1,0,0.2,0v0.5c0,0,0,0,0,0c0,0,0,0,0-0.1c-0.1,0,0,0.1,0,0.1
	c-0.1,0,0,0.1,0,0.1v0h0l-0.1,0.1l0,0l-0.1,0.1l0,0l-0.1,0.1l0,0l-0.1,0.1l0,0l0,0.1l0,0l0,0.1h0v0.3v0v0.2h0v0.3v0h-0.3v0.1
	c0,0,0.2,0,0.3,0.1v3.7h-0.3v-0.4h0.2l-0.1-0.1l0,0l-0.1-0.1l0,0L15,44.3l0,0l-0.1-0.1l0,0h0l0,0l0-0.1l-0.1-0.1v-0.1
	c0,0,0-0.1-0.2-0.1c-0.2,0-0.3,0.1-0.3,0.1v0.1L14.3,44l0,0.1l0,0h0l0,0l-0.1,0.1l0,0l-0.1,0.1l0,0L14,44.6l0,0l-0.1,0.1H14v0.4h0
	v0.1v0v5.4L14,62h42.1v-6.4v-0.5v-4.7L56,49.9z M39.2,49.3c0.2-1.3-0.4-3.9-0.4-3.9c0.3-0.6,0.9-2.9,0.9-2.9
	c0.2,0.7,0.4,2.5,0.4,2.5c0,1,0.4,2.2,0.4,2.2c0.2,0.8,0.2,2.4,0.2,2.4c0,0.3,0,0.6,0,1h-0.1v0.1h0.1c0,0.1,0,0.2,0,0.3v0.1h-2.5
	v-0.4l0-0.1l0.7-0.5C39.2,49.9,39.2,49.3,39.2,49.3z M38.2,23.8c0,0,0.1-0.3,0.1-0.6c0,0-0.1-0.4,0.2-0.4c0,0,0.8,0.1,1.1-0.5
	l0.1,0.1c0,0-0.1,0.3,0.9,0.3l0.4,0.1c0,0-0.6,0.3-0.9,0.7c0,0-0.9,1.1-1.6,1.1c0,0-0.4,0.2-0.6,0.2C37.9,24.7,38,24.1,38.2,23.8z"
	/>
</svg>
