<svg version="1.1" xmlns="http://www.w3.org/2000/svg" xmlns:xlink="http://www.w3.org/1999/xlink" x="0px" y="0px"
	 viewBox="0 0 70 70" style="enable-background:new 0 0 70 70;" xml:space="preserve">
<style type="text/css">
	.st0{fill:#232323;}
</style>
<g>
	<polygon class="st0" points="13.4,22.1 13.6,18.6 17,17.4 13.4,17.3 12.2,13.9 12.1,17.5 8.7,18.6 12.3,18.8 	"/>
	<polygon class="st0" points="57.7,44.5 56.6,41.1 56.4,44.7 53,45.8 56.6,46 57.8,49.3 57.9,45.8 61.3,44.6 	"/>
	<polygon class="st0" points="31.4,49.2 31.3,52.2 28.5,53.1 31.5,53.2 32.4,56.1 32.5,53.1 35.4,52.1 32.4,52 	"/>
	<path class="st0" d="M28,45.7c3.2,1.7,7.1,1.5,11.1,0.2c3.9-1.4,7.1-3.6,8.6-6.9c-2.8,1.5-5.9,2.8-9.3,4
		C34.8,44.2,31.3,45.1,28,45.7z"/>
	<path class="st0" d="M60.4,25.8C60.4,25.8,60.4,25.8,60.4,25.8C60.4,25.8,60.4,25.7,60.4,25.8c0-0.1-0.1-0.1-0.1-0.2c0,0,0,0,0,0
		c-1-2.2-7.6-3.9-14.7-3.9c0.6,1,1.2,2.2,1.7,3.6c0.1,0.4,0.2,0.8,0.4,1.1c0.4,1.6-4.5,4.2-8.3,5.9c-0.7,0.3-1.5,0.7-2.2,1
		c-0.9,0.4-1.5,0.6-1.8,0.7c-3.9,1.4-9.9,2.8-12.6,2.8c-0.8,0-1.8-0.1-2.2-0.9c-0.2-0.4-0.3-0.8-0.5-1.2c-0.4-1.3-0.7-2.5-0.9-3.7
		c-5.7,4.4-9.6,9.7-9.1,12c0,0,0,0,0,0c0,0,0,0.1,0,0.1c0,0,0,0,0,0c0,0,0,0,0,0c1.3,3.6,14,3.9,27.9-0.9
		C51.9,37.5,61.7,29.4,60.4,25.8z"/>
	<path class="st0" d="M21.3,35.7c0.6,1.3,8.9-0.7,13.8-2.4c4.9-1.7,12.1-5.6,11.8-6.6c-0.1-0.4-0.2-0.7-0.3-1.1
		c-3.1-9-10.1-10.4-17.2-8c-7.1,2.5-11.7,7.8-8.5,16.9C21,34.9,21.1,35.3,21.3,35.7z M43.7,23.5c0.7-0.3,1.5,0.3,1.8,1.4
		c0.3,1,0,2-0.7,2.3c-0.7,0.3-1.5-0.3-1.8-1.4C42.6,24.8,43,23.7,43.7,23.5z M28.6,33.5c-1,0.3-2.2-0.3-2.5-1.4
		c-0.4-1.1,0.2-2.2,1.2-2.5c1-0.3,2.2,0.3,2.5,1.4C30.1,32.1,29.6,33.2,28.6,33.5z M34.3,32c-1.1,0.4-2.2-0.2-2.6-1.3
		c-0.4-1.1,0.2-2.2,1.3-2.6c1.1-0.4,2.2,0.2,2.6,1.3C35.9,30.4,35.3,31.6,34.3,32z M38.9,25.6c1-0.4,2.1,0.1,2.5,1.2
		c0.4,1.1-0.1,2.3-1.1,2.7c-1,0.4-2.1-0.1-2.5-1.2C37.4,27.2,37.9,26,38.9,25.6z M21.8,31.1c0.7-0.2,1.6,0.4,2,1.3
		c0.4,1,0.1,1.9-0.6,2.2c-0.7,0.2-1.6-0.4-2-1.3C20.8,32.3,21.1,31.3,21.8,31.1z"/>
</g>
</svg>
