<svg version="1.1" xmlns="http://www.w3.org/2000/svg" xmlns:xlink="http://www.w3.org/1999/xlink" x="0px" y="0px"
	 viewBox="0 0 70 70" style="enable-background:new 0 0 70 70;" xml:space="preserve">
<style type="text/css">
	.st0{fill:#232323;}
</style>
<path class="st0" d="M30.3,16c4.4,0,8.7,0.9,12.9,2.6c2.6,1.1,4.8,2.5,6.6,4.4c1.1,1.1,1.9,2.2,2.4,3.4c1.2,2.6,1.3,5.1,0,7.7
	c-0.7,1.6-1.9,3-3.5,4.4c-1.9,1.6-4,2.8-6.5,3.8c-3.8,1.5-7.8,2.2-11.9,2.2c-1.1,0-2.2-0.1-3.3-0.2c-0.3,0-0.6,0-0.8,0
	c-1.4,0-2.7,0.3-4,1c-1.4,0.7-2.8,1.4-4.3,2.1c0.3-2.7-0.9-5.1-3.3-6.7c-1.1-0.7-2.2-1.5-3.3-2.3c-1-0.8-1.9-1.8-2.7-3
	c-1-1.6-1.6-3.1-1.6-4.8c0-1.3,0.2-2.6,0.9-3.9c0.8-1.8,2.1-3.3,3.9-4.8c2.4-1.9,5.3-3.4,8.5-4.3C23.7,16.5,27,16,30.3,16 M30.3,12
	c-3.7,0-7.4,0.5-11.1,1.6c-3.6,1-7,2.7-9.9,5c-2.1,1.7-3.9,3.7-5,6.2c-0.9,1.8-1.3,3.8-1.2,5.8c0.1,2.5,0.9,4.8,2.3,6.9
	c1,1.5,2.2,2.9,3.6,4c1.1,0.9,2.3,1.7,3.5,2.5c1.2,0.8,1.7,1.9,1.5,3.3c-0.1,0.7-0.3,1.4-0.4,2.1c-0.3,1.6-0.6,3.1-0.9,5
	c0.6-0.2,0.8-0.3,1.1-0.5c1.3-0.7,2.7-1.3,4-2c2.1-1,4.2-2.1,6.3-3.1c0.7-0.4,1.5-0.6,2.3-0.6c0.2,0,0.3,0,0.5,0
	c1.2,0.1,2.5,0.2,3.7,0.2c4.6,0,9-0.8,13.4-2.5c2.8-1.1,5.4-2.5,7.7-4.5c1.9-1.6,3.4-3.5,4.5-5.7c1.7-3.7,1.7-7.4-0.1-11.1
	c-0.8-1.7-1.9-3.2-3.2-4.5c-2.3-2.3-5-4-7.9-5.2C39.9,12.9,35.1,12,30.3,12L30.3,12z M47.3,30.5c0,1.9-1.5,3.5-3.4,3.6
	c-1.9,0-3.5-1.5-3.6-3.4c0-1.9,1.6-3.5,3.5-3.6C45.7,27,47.3,28.6,47.3,30.5z M21.6,30.6c0,1.9-1.6,3.5-3.5,3.4
	c-1.9,0-3.5-1.7-3.5-3.6c0-1.9,1.7-3.5,3.6-3.5C20.5,27.2,21.7,29.1,21.6,30.6z M34.3,30.6c0,1.9-1.5,3.5-3.5,3.5
	c-1.9,0-3.5-1.5-3.5-3.5c0-2.2,1.7-3.5,3.5-3.5C33,27.1,34.4,28.8,34.3,30.6z M64.9,45.2c1.5-2.1,2.2-4.4,2.2-6.9
	c0-2.5-0.8-4.9-2.3-7.1c-1.5-2.2-3.6-4-6.3-5.5c0.5,1.5,0.7,3.1,0.7,4.7c0,2.7-0.7,5.3-2.1,7.8c-1.4,2.5-3.3,4.6-5.9,6.5
	c-2.4,1.7-5.1,3-8.1,4c-3,0.9-6.2,1.4-9.5,1.4c-0.6,0-1.5,0-2.7-0.1c4.1,2.7,8.9,4.1,14.5,4.1c1.8,0,3.6-0.2,5.4-0.5
	c2.5,1.8,5.4,3.1,8.5,3.9c0.7,0.2,1.6,0.3,2.6,0.5c0.2,0,0.5-0.1,0.7-0.2c0.2-0.2,0.3-0.4,0.4-0.7c0-0.1,0-0.2,0-0.2
	c0,0,0-0.1,0-0.2c0-0.1-0.1-0.2-0.1-0.2L63,56.4c0,0-0.1-0.1-0.1-0.2c-0.1-0.1-0.1-0.1-0.1-0.2c0,0-0.1-0.1-0.1-0.2
	c-0.1-0.1-0.1-0.1-0.1-0.1c-0.1-0.1-0.3-0.4-0.7-0.8c-0.4-0.4-0.6-0.7-0.8-0.9c-0.2-0.2-0.4-0.5-0.7-0.9c-0.3-0.4-0.6-0.8-0.8-1.2
	c-0.2-0.4-0.4-0.9-0.6-1.4C61.4,49.2,63.4,47.4,64.9,45.2L64.9,45.2z M64.9,45.2"/>
</svg>
