<svg version="1.1" xmlns="http://www.w3.org/2000/svg" xmlns:xlink="http://www.w3.org/1999/xlink" x="0px" y="0px"
	 viewBox="0 0 70 70" style="enable-background:new 0 0 70 70;" xml:space="preserve">
<style type="text/css">
	.st0{fill:#232323;}
</style>
<g>
	<path class="st0" d="M54.8,25.2c-0.1-0.1-0.2-0.2-0.4-0.3c-0.4-0.3-0.6-0.7-0.8-1.1c-0.7-1.3-1.2-2.7-0.9-4.1
		c0.2-1,0.6-1.9,1.1-2.8c0.6-1,1.2-2.1,1.3-3.3c0.1-1.3-0.1-2.6-0.6-3.8c0,0.1,0.3,0.2,0.3,0.2c0.2,0.2,0.4,0.5,0.6,0.8
		c1.1,1.5,1.4,3.4,1,5.1c-0.2,0.9-0.7,1.8-1.1,2.6c-0.4,0.8-0.6,1.7-0.7,2.5c-0.1,0.7-0.1,1.4-0.1,2.1
		C54.5,23.9,54.7,24.5,54.8,25.2z"/>
	<path class="st0" d="M57.7,25.1c-0.1-0.1-0.1-0.1-0.2-0.2c-0.2-0.2-0.4-0.5-0.5-0.7c-0.5-0.8-0.7-1.7-0.6-2.6
		c0.1-0.6,0.4-1.2,0.7-1.8c0.4-0.6,0.7-1.3,0.8-2.1c0.1-0.8-0.1-1.7-0.4-2.4c0,0,0.2,0.1,0.2,0.2c0.1,0.1,0.3,0.3,0.4,0.5
		c0.7,0.9,0.9,2.1,0.6,3.2c-0.2,0.6-0.5,1.1-0.7,1.7c-0.2,0.5-0.4,1-0.5,1.6c-0.1,0.4-0.1,0.9-0.1,1.3
		C57.5,24.2,57.7,24.6,57.7,25.1z"/>
	<g>
		<g>
			<g>
				<path class="st0" d="M41.6,59.6c1.3,1,3.1,0.8,4.1-0.4l0,0c1-1.3,0.8-3.1-0.4-4.1l-9.6-7.7c-1.3-1-3.1-0.8-4.1,0.4l0,0
					c-1,1.3-0.8,3.1,0.4,4.1L41.6,59.6z"/>
				<path class="st0" d="M13.5,48.9c5,4,12.1,3.5,16.5-1l0.8,0.6c0.1,0.1,0.2,0.1,0.3,0.2l1.4-1.7c-0.1-0.1-0.1-0.2-0.2-0.3
					l-0.7-0.6C35,40.9,34,33.8,29,29.8c-5.3-4.3-13.1-3.5-17.3,1.8C7.4,36.9,8.2,44.7,13.5,48.9z M14.6,47.6
					c-4.6-3.7-5.3-10.4-1.6-14.9c3.7-4.6,10.4-5.3,14.9-1.6s5.3,10.4,1.6,14.9C25.9,50.6,19.2,51.3,14.6,47.6z"/>
			</g>
			<path class="st0" d="M21.5,40c2.9-0.1,5.4-1.5,6.9-3.7c1.6,2.9,1.4,6.5-0.8,9.2c-2.9,3.5-8,4.1-11.6,1.2c-3.2-2.6-3.9-7-2-10.4
				C15.7,38.6,18.5,40.1,21.5,40z"/>
		</g>
		<path class="st0" d="M59.9,27.2c-4.9,0-5.6,0-8.6,0c0,1.3,0.2,5.2-3.3,5.2C43,32.5,35.6,15,27.9,15l-0.2,1.2
			c10,0,10.9,26.2,25.6,26.2C65.1,42.4,59.9,27.2,59.9,27.2z"/>
	</g>
</g>
</svg>
