<svg version="1.1" xmlns="http://www.w3.org/2000/svg" xmlns:xlink="http://www.w3.org/1999/xlink" x="0px" y="0px"
	 viewBox="0 0 70 70" style="enable-background:new 0 0 70 70;" xml:space="preserve">
<style type="text/css">
	.st0{fill:#232323;}
</style>
<g>
	<path class="st0" d="M64.2,35.6c-4.1-1.1-9.5-2.9-11.3-3.5c-0.4-0.1-0.8-0.1-1.1,0.2l-4.9,3.3l0,0l1.6-1.1c3,1.1,5.7,2.1,7.6,2.8
		c0.7,0.3,0.9,1.2,0.4,1.7c-3.4,3.1-12.6,11.8-16.2,15.2c-0.5,0.5-1.2,0.6-1.8,0.3c-3.1-1.2-12.1-5-16.8-7.5c0,0-5.1-2.7-8.3-4
		c-0.6-0.2-0.7-1-0.2-1.3c1.8-1.3,5.3-3.9,8.9-6.6c0.6,0.9,1.2,1.7,1.6,2.3c-0.6,0.1-1.2,0.1-1.6,0.2c-0.1,0-0.1,0.2,0,0.2
		c2.1,0.2,4.8,0.3,4.9,0.3c0,0,0,0,0,0c1.8,0,4.3-0.2,5.6-0.3c0.1,0,0.2-0.2,0-0.2c-0.7-0.1-1.5-0.2-2.2-0.2c-0.4-1-1.5-3.6-2.7-6.4
		c1.2-0.9,2.3-1.7,3.1-2.3c0.5-0.4,1.1-0.5,1.7-0.2c2.4,0.9,9.1,3.4,15.2,5.6l1.2-2.7c0.2-0.5,0-1.1-0.6-1.2
		C44.1,29.1,35.1,26,32,24.9c-0.6-0.2-1.4-0.1-1.9,0.3c-0.9,0.7-2.2,1.7-3.8,2.8c-0.7-1.5-1.4-2.9-2-4l0.2-0.4
		c0.1-0.1,0.2-0.3,0.3-0.3l1.1-0.7c0.1,0,0.1-0.1,0.2-0.1c0.2,0,0.5,0,0.6,0.2c0.1,0.1,0.3,0.2,0.4,0.3c1.6,0.8,3.3-0.8,2.6-2.5
		c0,0,0-0.1,0-0.1c-0.1-0.3-0.3-0.5-0.6-0.7c-0.2-0.2-0.5-0.3-0.7-0.4c-0.5-0.2-1-0.1-1.4,0.1l-4.9,2.7l-5-7.7
		c-0.1-0.1-0.1-0.2-0.2-0.2c0.1-0.1,0.2-0.3,0.1-0.5l-0.1-0.2c-0.3-0.4-0.7-0.6-1.2-0.6c-0.1,0-0.2,0-0.3,0c0.2-0.4,0.3-0.8,0.3-1.2
		c0-1.4-1.2-2.6-2.6-2.6c-0.2,0-0.4,0-0.6,0.1c0,0,0,0,0,0c-0.1,0-0.2,0.1-0.3,0.1c-0.1,0-0.2,0.1-0.3,0.1c-0.1,0-0.2,0.1-0.3,0.1
		c-0.1,0-0.1,0.1-0.2,0.1c-0.1,0.1-0.1,0.1-0.2,0.2c-0.1,0-0.1,0.1-0.1,0.2c-0.1,0.1-0.1,0.1-0.2,0.2c0,0.1-0.1,0.1-0.1,0.2
		c-0.1,0.1-0.1,0.2-0.1,0.3c0,0.1-0.1,0.1-0.1,0.2c0,0.1-0.1,0.2-0.1,0.3c0,0.1,0,0.1,0,0.2c0,0.2,0,0.3,0,0.5c0,0.2,0,0.3,0,0.5
		c0,0.1,0,0.1,0,0.2c0,0.1,0.1,0.2,0.1,0.3c0,0.1,0.1,0.1,0.1,0.2c0,0.1,0.1,0.2,0.1,0.3c0,0.1,0.1,0.1,0.1,0.2
		c0.1,0.1,0.1,0.1,0.2,0.2c0,0.1,0.1,0.1,0.1,0.2c0.1,0.1,0.1,0.1,0.2,0.2c0.1,0,0.1,0.1,0.2,0.1c0.1,0.1,0.2,0.1,0.3,0.1
		c0.1,0,0.2,0.1,0.3,0.1c0.1,0,0.2,0.1,0.3,0.1c0,0,0,0,0,0c0.1,0,0.2,0,0.2,0c0,0,0,0,0,0c-0.6,0.5-0.7,1.4-0.2,2l0,0
		c0.1,0.2,0.4,0.2,0.6,0c0,0,0,0,0,0c0,0,0,0.1,0,0.1c1.4,3.1,3.5,7,4.3,8.4l-5.6,3.1c-0.2,0.1-0.4,0.3-0.6,0.5
		c0,0.1-0.1,0.1-0.1,0.2c-0.7,1.3,0.2,2.8,1.6,3.1c0,0,0,0,0.1,0c0.9,0.1,1.7-0.4,1.9-1.3c0.1-0.5,0.1-0.9,0-1.2
		c0-0.3,0.1-0.6,0.4-0.7l1.3-0.7c0.1-0.1,0.2-0.1,0.4-0.1l0.8,0c0.5,0.9,1.5,2.6,2.7,4.4c-5.7,3.9-12,8.2-14.7,10
		c-0.6,0.4-0.5,1.3,0.1,1.6c7.1,3.4,12.8,7.1,14.4,8.1c0.3,0.2,0.6,0.2,0.9,0l3.6-1.8L24,52.1c-0.1,0.4,0.1,0.8,0.5,1l15.1,7.3
		c0.8,0.4,1.7,0.2,2.4-0.4c2-2,6.2-6.1,7.8-7.7c0.4-0.4,0.4-1,0-1.3l-1.1-1l3.6-0.3c0.2,0,0.4-0.1,0.6-0.3
		c2.6-2.6,9.1-9.2,11.9-12.1C65.3,36.8,65,35.8,64.2,35.6z"/>
	<path class="st0" d="M41.9,46.5l-1.4-1.3c-0.1-0.1-0.2-0.1-0.4-0.1l-2.3,0.5l-1.2-1.3c-0.1-0.1-0.2-0.2-0.4-0.1l-1.8,0.4
		c-0.3,0.1-0.4,0.4-0.2,0.7l0.8,1l-2.4,0.6c-0.3,0.1-0.4,0.5-0.2,0.7l1.3,1.3c0.1,0.1,0.2,0.1,0.4,0.1l2.6-0.6l1.3,1.6
		c0.1,0.1,0.3,0.2,0.4,0.1l2-0.6c0.3-0.1,0.4-0.4,0.2-0.7l-1.1-1.1l2-0.5C42.1,47.1,42.2,46.7,41.9,46.5z"/>
	<ellipse transform="matrix(0.2639 -0.9645 0.9645 0.2639 -7.5165 54.6532)" class="st0" cx="32" cy="32.3" rx="1.2" ry="1.3"/>
	<path class="st0" d="M41.2,43.2c0.2-0.9,0.3-1.8,0.3-2.7l-1.2,0c0,0.8-0.1,1.6-0.3,2.4L41.2,43.2z"/>
	<path class="st0" d="M39.1,36.5c0.4,0.6,0.8,1.3,1,2.1l1.2-0.3c-0.2-0.9-0.6-1.7-1.2-2.5L39.1,36.5z"/>
	<path class="st0" d="M38.6,34.3c-0.7-0.6-1.5-1-2.4-1.3l-0.4,1.2c0.7,0.3,1.4,0.7,2.1,1.1L38.6,34.3z"/>
</g>
</svg>
