<svg version="1.1" xmlns="http://www.w3.org/2000/svg" xmlns:xlink="http://www.w3.org/1999/xlink" x="0px" y="0px"
	 viewBox="0 0 70 70" style="enable-background:new 0 0 70 70;" xml:space="preserve">
<style type="text/css">
	.st0{fill:#232323;}
</style>
<path class="st0" d="M65,44.1c0-0.3-0.2-0.6-0.4-0.8c0.1-0.2,0.2-0.5,0.2-0.8c0-0.9-0.6-1.6-1.4-1.7c0-0.1,0-0.1,0-0.2
	c0-0.6-0.3-1.2-0.8-1.6C61.8,24.6,50,13.2,35.4,13.2c-14.3,0-26.1,11.1-27,25.2c-0.9,0.3-1.6,1-1.7,2c0,0-0.1,0-0.1,0
	C5.7,40.4,5,41,5,41.8c0,0.4,0.1,0.7,0.4,1C5.2,43,5,43.3,5,43.7c0,0.5,0.3,0.9,0.8,1.1c-0.2,0.3-0.3,0.6-0.3,0.9
	c0,1,0.8,1.7,1.7,1.7c0.2,0,0.3,0,0.5-0.1c0.1,0.8,0.7,1.3,1.5,1.3c0.2,0,0.3,0,0.5-0.1c0.2,0.3,0.4,0.4,0.8,0.4
	c0.2,0,0.5-0.1,0.6-0.2c0.3,0.5,0.9,0.8,1.5,0.8c0.7,0,1.3-0.4,1.6-0.9c0.4,0.3,0.9,0.5,1.5,0.5c0,0.1,0,0.2,0,0.2
	c0,1.9,1.5,3.4,3.4,3.4c0.2,0,0.4,0,0.5,0c0.3,1.1,1.3,2,2.6,2c0.8,0,1.5-0.3,2-0.9c0.6,1,1.7,1.6,2.9,1.6c1,0,1.9-0.4,2.5-1.1
	c0.7,1.4,2.2,2.4,3.9,2.4c1.6,0,3-0.9,3.8-2.2c0.5,0.8,1.3,1.3,2.3,1.3c1.1,0,2.1-0.7,2.5-1.7c0.6,0.8,1.6,1.2,2.6,1.2
	c1.6,0,2.9-1,3.3-2.5c0.8,0.8,1.9,1.2,3,1.2c2.4,0,4.4-2,4.4-4.4c0-0.2,0-0.4,0-0.6c0.1,0,0.3-0.1,0.4-0.2c0.1,0,0.2-0.1,0.2-0.1
	c0.3,0.3,0.8,0.5,1.2,0.5c0.6,0,1.2-0.4,1.5-0.9c0.4,0.4,1,0.6,1.6,0.6c1.2,0,2.2-0.9,2.4-2c0.9,0,1.7-0.8,1.7-1.7
	c0-0.2,0-0.3-0.1-0.5C64.6,44.9,65,44.5,65,44.1z M15.4,37.2C16.9,27.5,25.3,20,35.4,20c10.6,0,19.3,8.1,20.2,18.5
	c-0.2-0.1-0.5-0.2-0.7-0.2c-0.2,0-0.4,0.1-0.6,0.2c-0.9-9.6-9-17.1-18.9-17.1c-9.8,0-17.9,7.5-18.9,17.1c-0.1,0-0.3,0.1-0.4,0.2
	C16.1,38,15.8,37.5,15.4,37.2z M48.6,43.3c-0.2,0-0.4-0.1-0.7-0.1c-1.4,0-2.6,0.8-3.1,2c-0.6-0.3-1.3-0.5-2-0.5
	c-0.8,0-1.6,0.2-2.2,0.6c-0.8-0.8-1.9-1.3-3.1-1.3c-1.7,0-3.2,1-3.9,2.4c-0.6-1.6-2.2-2.8-4.1-2.8c-1.6,0-2.9,0.8-3.7,2.1
	c-0.4-0.2-1-0.3-1.5-0.3c-0.5,0-1,0.1-1.4,0.3c0-1.1-0.7-2-1.7-2.4c-0.1-0.1-0.2-0.3-0.4-0.3c0.1-0.3,0.2-0.7,0.2-1
	c0-1.3-1.1-2.4-2.4-2.4c-0.1-0.4-0.4-0.7-0.8-0.9c0.9-8.9,8.4-15.9,17.5-15.9c9.4,0,17,7.3,17.6,16.6c-0.1,0-0.2,0-0.3,0
	c-1,0-1.7,0.8-1.7,1.7c0,0.2,0,0.4,0.1,0.6c0,0,0,0-0.1,0c-0.5,0-1,0.3-1.2,0.7C49.3,42.5,48.9,42.8,48.6,43.3z M57.9,37.9
	c-0.3,0-0.6,0.1-0.9,0.2c-1.1-10.9-10.4-19.4-21.6-19.4c-10.9,0-19.9,8-21.5,18.4c-0.5,0.1-1,0.5-1.2,1c-0.1-0.1-0.2-0.1-0.3-0.2
	c1.2-11.6,11-20.7,22.9-20.7c11.9,0,21.7,9,22.9,20.6C58.2,37.9,58,37.9,57.9,37.9z M59.9,39c0,0-0.1-0.1-0.1-0.1
	C59,26.1,48.4,15.9,35.4,15.9c-12.7,0-23.1,9.6-24.3,22c-0.4,0.1-0.7,0.4-0.9,0.7c-0.2-0.1-0.3-0.2-0.5-0.2
	c1-13.3,12.1-23.9,25.7-23.9c13.6,0,24.8,10.6,25.7,24C60.7,38.5,60.2,38.7,59.9,39z"/>
</svg>
