<svg version="1.1" xmlns="http://www.w3.org/2000/svg" xmlns:xlink="http://www.w3.org/1999/xlink" x="0px" y="0px"
	 viewBox="0 0 70 70" style="enable-background:new 0 0 70 70;" xml:space="preserve">
<style type="text/css">
	.st0{fill:#232323;}
</style>
<path class="st0" d="M23,44.5c0-0.1,0-0.1,0-0.2c-0.2-0.6-0.6-1-1.1-1.2c-0.4-0.3-1-0.4-1.5-0.5v0c0,0-0.1,0-0.1,0v-2.2
	c0.3-0.3,0.6-0.6,0.9-0.9c-0.2,0.1-0.5,0.3-0.7,0.4c0,0,0,0,0,0c0,0,0,0,0,0c0.3-0.1,0.5-0.2,0.8-0.4c2.4-1.3,3.5-3.3,4.3-5.5
	c0.3-0.7,0.5-1.5,0.6-2.2c0,0,0,0,0,0c0.2,0,0.3-0.1,0.4-0.2c0.2-0.8,0.3-1.6,0.3-2.3c0-0.7,0-1.3-0.1-2c0-0.1,0-0.1-0.1-0.2
	c-0.1-0.1-0.2-0.1-0.3-0.2c-1-6.2-7.2-9.3-13.2-7.5c-0.2-0.6-0.6-1.3-1.2-2c0,0-0.1,0-0.1-0.1c-0.1-0.1-0.3,0-0.4,0.1
	c-0.4,0.9-0.7,1.8-0.8,2.7c0,0.1,0,0.2,0,0.3c-0.2,0.1-0.4,0.2-0.7,0.4c-0.2-0.4-0.5-0.7-0.8-1c-0.7-0.9-1.6-1.6-2.7-2.2
	c0,0-0.1,0-0.1,0c-0.2,0-0.3,0.1-0.3,0.3c-0.2,1.7,0,3,0.7,3.9C7,22.1,7.5,22.5,8,22.9c-0.5,0.8-0.8,1.6-1.1,2.5
	c-0.1,0.1-0.2,0.2-0.3,0.3c0,0-0.1,0.1-0.1,0.2c0,0,0,0.1,0,0.2c-0.2,0.9-0.6,2.3-0.5,3.6c0,0.1,0,0.2,0.1,0.2
	c0.1,0.1,0.1,0.1,0.2,0.1c0,3.5,1.3,7,4.3,8.9c0.6,0.7,1.2,1.3,1.9,1.9v2.3c0,0-0.1-0.1-0.1-0.1c-0.1,0-0.2-0.1-0.3-0.1
	c-0.4,0-1,0.1-1.4,0.4c-0.4,0.3-0.8,0.7-0.9,1.1c0,0.1,0,0.1,0,0.2c-3.8-1.2-6.6,5.3-6.7,8.4h13.5h0h13.5
	C29.7,49.7,26.9,43.1,23,44.5z M10.1,44.4C10.1,44.4,10.1,44.4,10.1,44.4c0.1-0.3,0.4-0.6,0.7-0.7c0.3-0.2,0.7-0.3,1.1-0.3
	c0,0,0.1,0,0.1,0c0.1,0.2,0.3,0.3,0.4,0.5c0.1,0.1,0.1,0.2,0.2,0.2c0,0,0.1,0.1,0.1,0.1c0.1,0.1,0.2,0.2,0.3,0.3
	c0.3,0.3,0.7,0.6,1,0.8c0.8,0.5,1.6,0.8,2.4,0.7c0.8,0,1.6-0.3,2.3-0.9c0.3-0.2,0.7-0.5,1-0.9c0.1-0.1,0.2-0.2,0.3-0.4
	c0,0,0.1-0.1,0.1-0.1c0.1-0.1,0.1-0.2,0.2-0.3c0.1-0.1,0.2-0.2,0.2-0.3c0.4,0.1,0.8,0.2,1.1,0.4c0.3,0.2,0.5,0.4,0.7,0.7
	c0,0.1,0.1,0.1,0.1,0.1c-1.1,3.2-2.7,5.4-4.3,6.5c-0.9,0.6-1.8,0.9-2.7,0.9c-0.9,0-1.7-0.4-2.5-1.1c-1.2-1.1-2.2-3.2-2.8-6.2
	C10.1,44.5,10.1,44.4,10.1,44.4z M20,39.8c-0.1,0.1-0.1,0.1-0.2,0.2l-0.1,0.1v0.1v3.1c-0.1,0.1-0.2,0.3-0.3,0.4
	c-0.3,0.4-0.7,0.7-1,1c-0.7,0.5-1.3,0.7-2,0.8c-0.7,0-1.4-0.2-2.1-0.6c-0.3-0.2-0.7-0.5-1-0.9c-0.1-0.1-0.2-0.2-0.3-0.3v-3.1v-0.2
	l-0.1-0.1c-0.4-0.3-0.8-0.6-1.1-1c-0.8-0.8-1.5-1.7-2-2.8c-0.7-1.4-1.1-3.1-1.2-5c1.2-0.1,3.9-0.6,6.7-1.7c1.6-0.7,3.3-1.6,4.7-2.8
	c0.3,0.2,0.5,0.3,0.8,0.5c0.5,0.8,1,1.6,1.3,2.4c0.5,1.1,0.9,2.3,1.3,3.5c-0.2,1.4-0.6,2.6-1.2,3.6C21.6,38.1,20.8,39,20,39.8z
	 M7,26.1c0.6-0.5,1.2-1,1.8-1.5c0.6-0.5,1-0.8,1.1-0.9c0.1-0.1,0.1-0.3,0-0.4c0,0-0.1-0.1-0.1-0.1c-0.6-0.2-1.1-0.5-1.5-0.8
	c-0.5-0.3-0.9-0.7-1.2-1.1c-0.5-0.8-0.8-1.7-0.7-3.1c0.8,0.5,1.5,1.1,2.2,1.9c0.3,0.3,0.5,0.6,0.7,1c0.4,0.6,0.7,1.2,1.1,1.9
	c0.1,0.1,0.2,0.2,0.3,0.2l0.2,0c0.2,0,0.3-0.1,0.3-0.3c0,0,0,0,0-0.1c-0.1-0.9-0.2-1.8-0.1-2.6c0,0,0-0.1,0-0.1
	c0.1-0.7,0.2-1.3,0.5-2c0.4,0.5,0.6,1,0.8,1.4c0.1,0.3,0.1,0.5,0.1,0.8c0,0.8-0.3,1.6-0.9,2.5c-0.1,0.1,0,0.3,0.1,0.4
	c0,0,0.1,0,0.1,0l0.1,0c0,0,0.1,0,0.1,0c2.2-0.4,4.7-0.1,7.1,0.6c2.8,0.9,5.3,2.3,6.9,3.6c0.1,0.6,0.1,1.2,0.1,1.8
	c0,0.5-0.1,1-0.2,1.6c-1.1-1.1-2.8-2.6-4.9-3.8c-0.2-0.1-0.4-0.3-0.7-0.4c-0.1-0.1-0.2-0.1-0.4-0.2c-0.1-0.1-0.2-0.1-0.3-0.2
	c-0.4-0.2-0.8-0.4-1.2-0.6c-2.4-1.1-5.1-1.9-7.7-1.6c-0.1,0-0.1,0-0.2,0.1c-0.6,0.7-1.2,1.3-1.8,2c-0.8,0.9-1.7,1.8-2.5,2.7
	C6.6,27.9,6.8,26.8,7,26.1C7,26.2,7,26.2,7,26.1z M17.7,38.9c0,0.3-0.5,0.5-1.1,0.6c-0.2,0-0.4,0-0.6,0c-0.4,0-0.8-0.1-1.1-0.1
	c-0.4-0.1-0.7-0.3-0.7-0.5c0-0.4,0.8,0,1.8,0C16.9,38.9,17.7,38.6,17.7,38.9z M22.2,33.2c-0.1-1.3-0.4-1.6-1.7-1.8
	c-1.3-0.2-2.7,0-4,0.7c-0.2,0.1-0.5,0.1-0.7,0.1c-0.2,0-0.4,0-0.7-0.1c-1.3-0.7-2.7-0.8-4-0.7c-1.2,0.2-1.6,0.5-1.7,1.8
	c-0.1,1.6,0.1,2.2,1.5,2.6c1.7,0.6,3.6,0.1,4.4-2.4c0.1-0.2,0.3-0.3,0.5-0.3c0.2,0,0.4,0.1,0.5,0.3c0.8,2.5,2.7,3,4.4,2.4
	C22.1,35.4,22.3,34.8,22.2,33.2z M14.2,34.7c-0.6,0.8-1.3,0.9-2.2,0.8c-0.5,0-1-0.1-1.5-0.4C10,35,9.9,34.1,10,33.3
	c0.2-1.6,0.7-1.5,2.2-1.5c0.6,0,1.2,0.1,1.9,0.3C15.4,32.4,14.8,34,14.2,34.7z M21.2,35.2c-0.5,0.3-1,0.4-1.5,0.4
	c-0.9,0-1.6-0.1-2.2-0.8c-0.6-0.8-1.2-2.3,0-2.7c0.7-0.2,1.3-0.3,1.9-0.3c1.5,0,2-0.1,2.2,1.5C21.7,34.1,21.6,35,21.2,35.2z
	 M67.1,52.8c-2.3,0-4.6,0-6.9,0c-3.7,0-7.3,0-11,0c-3.7,0-7.3,0-11,0c-2.3,0-4.6,0-6.9,0c-0.3-3-0.5-6.1,1.4-9.2
	c0.3-0.3,0.5-0.5,0.8-0.8c0,0,0.1-0.1,0.1-0.1c0.3-0.2,0.5-0.4,0.8-0.6c0.1,0,0.1-0.1,0.2-0.1c0.3-0.2,0.5-0.4,0.8-0.5
	c0.1,0,0.1-0.1,0.2-0.1c0.3-0.2,0.5-0.3,0.8-0.5c0,0,0,0,0,0l0,0c1.8-1,3.7-1.8,5.5-2.8c0.5,2.8,2.7,5.1,5.4,5.8l0.9,3.9l1,4.3
	l1-4.3l0.9-3.9c2.7-0.7,4.9-3,5.4-5.8c2.1,1.2,4.3,2.1,6.3,3.3c0.1,0,0.1,0.1,0.2,0.1c0.3,0.2,0.6,0.4,0.9,0.6
	c0.1,0,0.1,0.1,0.2,0.1c0.3,0.2,0.5,0.4,0.8,0.6c0,0,0.1,0.1,0.1,0.1c0.3,0.2,0.5,0.5,0.8,0.8C67.5,46.7,67.3,49.7,67.1,52.8z
	 M42.6,31.6c0.2,0.8,0.5,1.5,0.8,2.2v2.6c0,1.6,0.7,3,1.7,4.1c1,1,2.5,1.7,4.1,1.7c1.6,0,3-0.7,4.1-1.7c1-1,1.7-2.5,1.7-4.1v-2.8
	c0.3-0.6,0.5-1.2,0.7-2c0.4-0.1,0.8-0.5,1.1-1.1c0.3-0.6,0.5-1.3,0.5-2.1c0-0.6-0.1-1.2-0.3-1.7c-0.2-0.5-0.4-0.8-0.7-1.1l0-0.1
	c0-0.3,0-0.7,0-0.9c-0.1-1.9-0.9-3.6-2.2-4.9c-1.3-1.2-3-2-4.9-2c-1.9,0-3.6,0.8-4.9,2c-1.3,1.2-2.1,3-2.2,4.9c0,0.1,0,0.5,0,0.8
	l0,0.3c-0.3,0.3-0.5,0.7-0.6,1.1c-0.1,0.5-0.2,1-0.2,1.6c0,0.8,0.2,1.5,0.4,2C41.9,31,42.2,31.4,42.6,31.6z M42.1,27.1
	c0.1-0.4,0.3-0.7,0.5-0.9l0.1-0.1v-0.1l0-0.4c0-0.3,0-0.7,0-0.8c0.1-1.7,0.8-3.3,2-4.4c1.1-1.1,2.7-1.8,4.4-1.8
	c1.7,0,3.3,0.7,4.4,1.8c1.2,1.1,1.9,2.7,2,4.4c0,0.3,0,0.6,0,0.9l0,0.2l0,0.1l0.1,0.1c0.2,0.2,0.4,0.5,0.6,0.9
	c0.1,0.4,0.2,0.9,0.2,1.5c0,0.7-0.1,1.3-0.4,1.8c-0.2,0.4-0.5,0.7-0.7,0.7l-0.4-0.1l-0.2-0.1c0,0-0.1,0.1-0.1,0.1
	c-0.1,0.1-0.2,0.3-0.3,0.4c-2.7,2.9-1,0.2-5.2,0.1c-4.1,0.2-2.5,2.8-5.1,0c-0.1-0.1-0.2-0.2-0.3-0.4c-0.1-0.1-0.1-0.1-0.2-0.2
	l-0.2,0L42.9,31c-0.3-0.1-0.5-0.4-0.7-0.8c-0.2-0.5-0.4-1.1-0.4-1.8C41.9,28,41.9,27.5,42.1,27.1z M54.3,36.4c0,1.4-0.6,2.7-1.5,3.6
	c-0.9,0.9-2.2,1.5-3.6,1.5c-1.4,0-2.7-0.6-3.6-1.5c-0.9-0.9-1.5-2.2-1.5-3.6V35c0.6,0.9,1.3,1.6,2,2.2c1,0.7,2,1,3.1,1
	c1.1,0,2.1-0.3,3.1-1c0.8-0.6,1.5-1.3,2.1-2.3V36.4z M51.3,34.2c0,0,0,0.1,0,0.1h-2.1H47c0-0.1,0-0.1,0-0.1v0c0-0.5,0.3-0.8,0.6-0.8
	h1.5h1.5C51,33.3,51.3,33.7,51.3,34.2L51.3,34.2z M43.5,27.8c-0.1-0.4-0.2-1-0.5-1.5c0-0.3,0-0.5,0-0.8c0.5,0,0.9-0.1,1.4-0.1
	c0.1,0,0.3,0,0.4,0c0.1,0,0.3,0,0.4,0c1.3,0,2.6,0.1,3.9,0.3c1.3-0.2,2.6-0.3,3.9-0.3c0.1,0,0.3,0,0.4,0c0.1,0,0.3,0,0.4,0
	c0.5,0,0.9,0,1.4,0.1c0,0.3,0,0.5,0,0.8c-0.3,0.5-0.3,1-0.5,1.5c-0.1,0.2-0.1,0.4-0.3,0.5c-0.1,0.1-0.2,0.2-0.3,0.2
	c-0.1,0-0.2,0.1-0.3,0.1c-0.9,0.2-1.9,0.2-2.8,0.1c-1.1-0.1-1.2-0.9-1.5-1.8c-0.1-0.1-0.1-0.2-0.3-0.3c-0.1,0-0.3,0-0.4,0
	c-0.1,0-0.2,0.1-0.3,0.3c-0.3,0.9-0.4,1.7-1.5,1.8c-0.9,0.1-1.9,0.1-2.8-0.1c-0.1,0-0.2,0-0.3-0.1c-0.1,0-0.2-0.1-0.3-0.2
	C43.6,28.2,43.5,28,43.5,27.8z"/>
</svg>
