<svg version="1.1" xmlns="http://www.w3.org/2000/svg" xmlns:xlink="http://www.w3.org/1999/xlink" x="0px" y="0px"
	 viewBox="0 0 70 70" style="enable-background:new 0 0 70 70;" xml:space="preserve">
<style type="text/css">
	.st0{fill:#232323;}
</style>
<path class="st0" d="M60.7,19.5c-1.2-2.8-3.4-4.4-6.4-4.6c-2.4-0.1-4.7-0.1-7.1-0.1v0c0-2.2-1.8-4.1-4.1-4.1H26.9
	c-2.2,0-4.1,1.8-4.1,4.1v0c-2.4,0-4.7,0-7.1,0.1c-3,0.1-5.2,1.8-6.4,4.6c-1.2,2.7-1,5.5,0.8,7.9c2.8,3.7,8.8,3.3,11-0.8
	c1-1.9,0.8-3.7-0.3-5.4c-1.1-1.6-2.8-2.3-4.7-2.1c-2.3,0.2-3.8,2.3-3.4,4.5c0.4,1.9,2.6,2.9,4,1.8c0.4-0.3,0.4-1,0.6-1.6
	c-0.4-0.1-0.8-0.2-1.2-0.3c-0.3-0.1-0.9,0-1-0.2c-0.2-0.3-0.2-1,0-1.2c0.4-0.5,1-1.1,1.5-1.1c1.3-0.1,2.1,0.8,2.6,2
	c0.5,1.1,0.9,2.3-0.1,3.4c-1.2,1.3-2.6,1.9-4.3,1.6c-1.9-0.4-3.2-1.5-3.8-3.4c-0.9-2.9,1.4-6.8,4.4-7.6c2.9-0.8,6,0.4,7.6,3
	c1.6,2.5,0.8,4.8,0.5,7.8c-0.1,1.7-1.1,31.6-1.1,31.6h3V26.5h3.1v32.7h5.1V26.5h3.1v32.7h5.1V26.5h3.1v32.7h3c0,0-1-29.9-1.1-31.6
	c-0.3-2.9-1-5.3,0.5-7.8c1.6-2.5,4.7-3.7,7.6-3c3,0.8,5.3,4.7,4.4,7.6c-0.6,1.9-1.9,3-3.8,3.4c-1.7,0.4-3.1-0.3-4.3-1.6
	c-1-1.1-0.6-2.2-0.1-3.4c0.5-1.1,1.3-2.1,2.6-2c0.5,0,1.1,0.6,1.5,1.1c0.2,0.3,0.1,0.9,0,1.2c-0.1,0.2-0.7,0.1-1,0.2
	c-0.4,0.1-0.8,0.2-1.2,0.3c0.2,0.5,0.2,1.3,0.6,1.6c1.4,1.1,3.7,0.1,4-1.8c0.4-2.2-1.2-4.2-3.4-4.5c-1.9-0.2-3.6,0.5-4.7,2.1
	c-1.2,1.7-1.3,3.6-0.3,5.4c2.2,4.1,8.2,4.6,11,0.8C61.7,25,62,22.3,60.7,19.5z M26.6,23.5c0,0.4-0.3,0.7-0.7,0.7
	c-0.4,0-0.7-0.3-0.7-0.7v-0.6c0-0.4,0.3-0.7,0.7-0.7c0.4,0,0.7,0.3,0.7,0.7V23.5z M29.2,23.5c0,0.4-0.3,0.7-0.7,0.7
	c-0.4,0-0.7-0.3-0.7-0.7v-0.6c0-0.4,0.3-0.7,0.7-0.7c0.4,0,0.7,0.3,0.7,0.7V23.5z M31.8,23.5c0,0.4-0.3,0.7-0.7,0.7
	c-0.4,0-0.7-0.3-0.7-0.7v-0.6c0-0.4,0.3-0.7,0.7-0.7c0.4,0,0.7,0.3,0.7,0.7V23.5z M34.4,23.5c0,0.4-0.3,0.7-0.7,0.7
	c-0.4,0-0.7-0.3-0.7-0.7v-0.6c0-0.4,0.3-0.7,0.7-0.7c0.4,0,0.7,0.3,0.7,0.7V23.5z M37,23.5c0,0.4-0.3,0.7-0.7,0.7
	c-0.4,0-0.7-0.3-0.7-0.7v-0.6c0-0.4,0.3-0.7,0.7-0.7c0.4,0,0.7,0.3,0.7,0.7V23.5z M39.6,23.5c0,0.4-0.3,0.7-0.7,0.7
	c-0.4,0-0.7-0.3-0.7-0.7v-0.6c0-0.4,0.3-0.7,0.7-0.7c0.4,0,0.7,0.3,0.7,0.7V23.5z M42.3,23.5c0,0.4-0.3,0.7-0.7,0.7
	c-0.4,0-0.7-0.3-0.7-0.7v-0.6c0-0.4,0.3-0.7,0.7-0.7c0.4,0,0.7,0.3,0.7,0.7V23.5z M44.9,23.5c0,0.4-0.3,0.7-0.7,0.7
	c-0.4,0-0.7-0.3-0.7-0.7v-0.6c0-0.4,0.3-0.7,0.7-0.7c0.4,0,0.7,0.3,0.7,0.7V23.5z"/>
</svg>
