<svg version="1.1" xmlns="http://www.w3.org/2000/svg" xmlns:xlink="http://www.w3.org/1999/xlink" x="0px" y="0px"
	 viewBox="0 0 70 70" style="enable-background:new 0 0 70 70;" xml:space="preserve">
<style type="text/css">
	.st0{fill:#232323;}
</style>
<g>
	<path class="st0" d="M59.3,42.9l-6.1-2.4c0,0-0.1,0-0.1,0c4.2-1,6.2-2.5,6.3-2.6c0.2-0.2,0.3-0.4,0.3-0.7c0-0.1-0.9-6.2-0.9-12.3
		c0-5.8-4.7-10.5-10.5-10.5S37.8,19,37.8,24.8c0,1.6-0.1,3.5-0.2,5.4L35.9,31l-5-2.5c0,0,0,0,0,0c0.2-0.7,0.4-1.4,0.4-2.2
		c1-0.3,1.8-1.3,1.8-2.4c0-0.8-0.3-1.5-0.9-1.9v-5.2c0-1.4-0.7-2.8-1.9-3.6c-0.4-1.5-1.7-2.5-3.3-2.5H20c-3.8,0-7,3.1-7,7V22
		c-0.5,0.5-0.9,1.2-0.9,1.9c0,1.1,0.8,2.1,1.8,2.4c0.2,2.6,1.5,4.9,3.5,6.4v2.1L11,36.8c-1.5,0.4-2.4,1.8-2.4,3.3v8.6
		c0,0.4,0.3,0.8,0.8,0.8h0.1v9c0,0.4,0.3,0.8,0.8,0.8c0.4,0,0.8-0.3,0.8-0.8v-9h2.9v9c0,0.4,0.3,0.8,0.8,0.8v0h11l0-3.8
		c0,0-0.1-2.3,1.5-3.4c1.7-1.1,5.2-1.8,5.2-1.8v1.4c0,0,0,0.1-0.1,0.1l-2.9,1c-1.4,0.5-2.3,1.8-2.3,3.3v2.5c0,0.4,0.3,0.7,0.7,0.8
		c0,0,0,0,0,0h0c0,0,0,0,0,0s0,0,0,0l15.9,0c0.4,0,0.8-0.3,0.8-0.8v-2.5c0-1.5-0.9-2.8-2.3-3.3l-2.9-1c0,0-0.1-0.1-0.1-0.1v-1.4
		c0.3,0.1,3.6,0.7,5.2,1.8c1.7,1.1,1.5,3.4,1.5,3.4l0,3.8h10.2c0.4,0,0.8-0.3,0.8-0.8v-7.2h2v7.2c0,0.4,0.3,0.8,0.8,0.8
		c0.4,0,0.8-0.3,0.8-0.8v-7.2h0.1c0.2,0,0.4-0.1,0.5-0.2c0.1-0.1,0.2-0.3,0.2-0.5v-4.4C61.4,44.7,60.6,43.4,59.3,42.9z M39.2,27.9
		l2.1-0.5l0,0c0,0,0,0,0.1,0c2.4-0.6,3.4-2,3.8-3c1.7,1,3.6,1.4,5.3,1.7c3.3,0.6,5,1.1,5,4.1c0,0.5-0.1,1.1-0.2,1.6
		c-0.4,1.6-1.2,3-2.5,4c-1.3,1-2.9,1.6-4.5,1.6c-1.5,0-3-0.5-4.2-1.3c-0.4-1.2-1.2-2.3-2.1-3.3v-3.5c0-0.3-0.1-0.5-0.4-0.7
		c-0.2-0.1-0.5-0.2-0.8,0l-1.7,0.8C39.2,28.9,39.2,28.4,39.2,27.9z M40.4,30.5v2.8l-2.8-1.4L40.4,30.5z M31.4,30.5l2.8,1.4l-2.8,1.4
		V30.5z M27.1,39v0.7c-0.6,0.5-0.9,1.2-0.9,1.9c-1.1,0.7-2.4,1-3.6,1c-3.4,0-6.3-2.4-7-5.6l1.9-0.6c0.5,2.4,2.6,4.2,5.1,4.2
		c2,0,3.7-1.1,4.6-2.8C27.2,38.2,27.1,38.6,27.1,39z M19,35.4v-1.8c1.1,0.5,2.3,0.8,3.6,0.8c1.3,0,2.5-0.3,3.6-0.8v1.8
		c0,2-1.6,3.6-3.6,3.6C20.6,39.1,19,37.5,19,35.4C19,35.4,19,35.4,19,35.4z M22.6,32.9c-4,0-7.2-3.2-7.2-7.2c0-0.4-0.3-0.8-0.8-0.8
		c-0.5,0-1-0.4-1-1c0-0.5,0.4-1,1-1h1.8c0.3,0,0.6-0.2,0.7-0.5l0.7-2.1c1.2,0,3.9-0.1,6.5-0.6c2.5-0.4,5.1-1.3,6.3-3.2
		c0,0.2,0,0.3,0,0.5v4.5c0,0-0.1,0-0.1,0h-0.9c-0.4,0-0.8,0.3-0.8,0.8c0,0.4,0.3,0.8,0.8,0.8h0.9c0.5,0,1,0.4,1,1s-0.4,1-1,1
		c-0.4,0-0.8,0.3-0.8,0.8C29.8,29.7,26.6,32.9,22.6,32.9z M27.8,35.4v-2.7c0.8-0.6,1.4-1.3,2-2.1v2c-0.9,0.8-1.5,1.8-2,2.9
		C27.8,35.6,27.8,35.5,27.8,35.4z M39.4,53.3c-0.9,1-2.1,1.7-3.5,1.7c-1.4,0-2.7-0.6-3.5-1.7l0.5-0.2c0.7-0.2,1.1-0.9,1.1-1.6V51
		c0.6,0.2,1.2,0.3,1.9,0.3c0.7,0,1.3-0.1,1.9-0.3v0.6c0,0.7,0.5,1.3,1.1,1.6L39.4,53.3z M42.1,42.6c-0.4,0-0.8,0.3-0.8,0.8v0.8
		c0,0,0,0,0,0v0.1c0,3-2.4,5.4-5.4,5.4c-3,0-5.4-2.4-5.4-5.4v-0.9c0-0.4-0.3-0.8-0.8-0.8h-0.9c-0.5,0-1-0.4-1-1
		c0-0.4,0.2-0.7,0.5-0.9c0.1,0,0.1-0.1,0.2-0.2c1.9-0.1,7.9-0.4,12-2.6l0,0l2.2-1.2c0.2,0.7,0.4,1.4,0.4,2.2v1.1
		c0,0.3,0.1,0.5,0.4,0.7c0.3,0.2,0.5,0.5,0.5,0.9c0,0.5-0.4,1-1,1H42.1z M48.3,47.1c-2.1,0-4.1-1.1-5.3-2.9c1.4,0,2.5-1.1,2.5-2.5
		c0-0.7-0.3-1.4-0.9-1.9V39c0-0.3,0-0.6,0-0.9c1.1,0.5,2.4,0.8,3.7,0.8c0.9,0,1.9-0.2,2.8-0.5v1.1c0,1,0.6,2,1.6,2.4l1.7,0.7
		C53.5,45.2,51.1,47.1,48.3,47.1z"/>
	<polygon class="st0" points="45.3,59.2 46.1,59.2 45.3,59.2 	"/>
	<path class="st0" d="M23.8,27.9c-0.3,0.4-0.7,0.6-1.2,0.6s-0.9-0.2-1.2-0.6c-0.3-0.3-0.8-0.4-1.1-0.1C20,28,20,28.5,20.2,28.9
		c0.6,0.7,1.5,1.2,2.4,1.2s1.8-0.4,2.4-1.2c0.3-0.3,0.2-0.8-0.1-1.1C24.5,27.5,24.1,27.5,23.8,27.9z"/>
	<path class="st0" d="M19.1,23.2c-0.4,0-0.8,0.3-0.8,0.8v0.9c0,0.4,0.3,0.8,0.8,0.8c0.4,0,0.8-0.3,0.8-0.8v-0.9
		C19.9,23.5,19.5,23.2,19.1,23.2z"/>
	<path class="st0" d="M26.2,23.2c-0.4,0-0.8,0.3-0.8,0.8v0.9c0,0.4,0.3,0.8,0.8,0.8c0.4,0,0.8-0.3,0.8-0.8v-0.9
		C26.9,23.5,26.6,23.2,26.2,23.2z"/>
	<path class="st0" d="M48.3,34.4c0.9,0,1.8-0.4,2.4-1.2c0.3-0.3,0.2-0.8-0.1-1.1c-0.3-0.3-0.8-0.2-1.1,0.1c-0.3,0.4-0.7,0.6-1.2,0.6
		c-0.4,0-0.9-0.2-1.2-0.6c-0.3-0.3-0.8-0.4-1.1-0.1c-0.3,0.3-0.4,0.8-0.1,1.1C46.5,34,47.4,34.4,48.3,34.4z"/>
	<path class="st0" d="M44.7,30c0.4,0,0.8-0.3,0.8-0.8v-0.9c0-0.4-0.3-0.8-0.8-0.8c-0.4,0-0.8,0.3-0.8,0.8v0.9
		C44,29.7,44.3,30,44.7,30z"/>
	<path class="st0" d="M51.8,30c0.4,0,0.8-0.3,0.8-0.8v-0.9c0-0.4-0.3-0.8-0.8-0.8c-0.4,0-0.8,0.3-0.8,0.8v0.9
		C51,29.7,51.4,30,51.8,30z"/>
	<path class="st0" d="M37.1,45.6c-0.3,0.4-0.7,0.6-1.2,0.6c-0.4,0-0.9-0.2-1.2-0.6c-0.3-0.3-0.8-0.4-1.1-0.1
		c-0.3,0.3-0.4,0.8-0.1,1.1c0.6,0.7,1.5,1.2,2.4,1.2s1.8-0.4,2.4-1.2c0.3-0.3,0.2-0.8-0.1-1.1C37.8,45.2,37.3,45.2,37.1,45.6z"/>
	<circle class="st0" cx="33.2" cy="42.5" r="0.8"/>
	<circle class="st0" cx="38.5" cy="42.5" r="0.8"/>
</g>
</svg>
