<svg version="1.1" xmlns="http://www.w3.org/2000/svg" xmlns:xlink="http://www.w3.org/1999/xlink" x="0px" y="0px"
	 viewBox="0 0 70 70" style="enable-background:new 0 0 70 70;" xml:space="preserve">
<style type="text/css">
	.st0{fill:#232323;}
</style>
<g>
	<g>
		<path class="st0" d="M11.3,25.1c0.3,0,5.1-0.3,5.1-0.3c-0.4,0.3-0.6,0.5-0.6,0.6c0.2,0.4,5.5-1.1,11.6-3c-0.4,0.2-3.5,4.7-3.5,4.7
			l5.2-1.3l12.5-8.1c1.6-0.6,2.7-1,3.2-1.2c3.6-1.5,8.6-5.2,7.9-6.7C52,8.2,46,9.5,42.4,11.1c-0.5,0.2-2.1,1-4.2,2
			c-0.8-0.2-17.1-3.6-17.3-3.5c-0.5,0.2-3.7,1.9-3.7,1.9l11.6,6.4c-2.5,1.3-4.9,2.6-7,3.7c-2.3-0.3-7.6-1.1-7.8-0.9
			c-0.2,0.1-1.7,1.4-1.7,1.4l1.5,1C12.4,24.1,10.9,25.1,11.3,25.1z"/>
		<path class="st0" d="M29.7,30.8c-1.1-0.7-2.4-1.2-2.6-1c-0.3,0.2,0.2,1.4,1.1,2.7c0.5,0.8,1.1,1.4,1.6,1.7c0.2,2.2,0.7,4.6,1,5.4
			c1.1,2.7,4.3,4,4.3,4s1.5-3.1,0.5-5.8c-0.3-0.7-1.6-3-3-4.7c0.1-0.5,0.1-1.3,0-2.1c-0.2-1.6-0.6-2.8-1-2.7c-0.3,0-0.9,1.2-1.2,2.4
			c0,0-0.1,0-0.1,0c-0.4-0.9-0.7-1.6-0.8-1.5c-0.1,0,0.1,0.7,0.5,1.7C29.8,30.7,29.7,30.7,29.7,30.8z"/>
	</g>
	<polygon class="st0" points="21.2,56.9 13.9,48.6 22.6,51.9 20.3,36.3 28.1,48.4 28.8,45.3 32.3,51.2 39.4,43.9 40.6,51.5 
		57.3,41.3 46,55.2 58.7,54.5 38.9,60.9 23.6,60.9 14.8,59 	"/>
</g>
</svg>
