<svg version="1.1" xmlns="http://www.w3.org/2000/svg" xmlns:xlink="http://www.w3.org/1999/xlink" x="0px" y="0px"
	 viewBox="0 0 70 70" style="enable-background:new 0 0 70 70;" xml:space="preserve">
<style type="text/css">
	.st0{fill:#232323;}
</style>
<path class="st0" d="M56.2,54.5c-18.5-13.8-13-34.8-21.3-41.3c-1.3-1.1-3.3-1.9-5-1.9c-7.1,0-15.8,10.8-12.9,23.4
	c0.1,0.6,0.3,1.2,0.5,1.9l-3.5,0.4c-1.1,0-2,0.8-2.2,1.9c0,0,0,0,0,0c0,0.1,0,0.2,0,0.4c0,1.2,2.4,1.8,3.6,1.8l3.8,0.2
	c0.2,0.6,0.5,1.1,0.8,1.7c0.8,1.7,1.8,3.3,2.9,4.8c1.4,1.9,3.1,3.6,4.8,5.3c0,0,0,0,0,0c0,0,0,0,0,0c0.6,0.6,1.1,1.1,1.7,1.7
	c0.5,0.5,1.1,1.1,1.7,1.7c0.1,0.1,0.3,0.2,0.4,0.3c0.3,0.2,0.5,0.4,0.8,0.6c0.5,0.4,1.1,0.8,1.7,1s1.2,0.4,1.9,0.3h0
	c0.2,0,0.4,0,0.6-0.1c0.2,0,0.4-0.1,0.6-0.1c0.8-0.2,1.6-0.5,2.4-0.6c0.3,0,0.7,0,1,0c0.6,0.1,1.3,0.3,1.9,0.4
	c0.2,0,0.3,0.1,0.5,0.1s0.3,0.1,0.5,0.1c0.3,0.1,0.7,0.1,1,0.1c0.3,0,0.6,0,0.9-0.1c0.3,0,0.6-0.1,0.9-0.2c0.6-0.1,1.2-0.3,1.8-0.5
	c0.9-0.2,1.8-0.4,2.8-0.3c0.1,0,0.2,0,0.4,0.1c0,0,0,0,0,0c2.1,0.4,6.5,2,7.3-0.7c0,0,0,0,0,0c0,0,0-0.1,0-0.1
	C58.6,55.7,57.1,55.1,56.2,54.5z M29.4,23.6c0,0-0.4,8.9-5.5,4.4C26.2,27.2,29.4,23.6,29.4,23.6z M17.6,24.1c0,0,1.2,2.9,2.9,4
	C17.8,32.2,17.6,24.1,17.6,24.1z M20.1,35.6c0-0.1,0-0.1-0.1-0.2c-0.6-2.5,0.4-4.5,2.3-4.5c1.9,0,4,2,4.6,4.5c0,0.1,0,0.1,0,0.2
	H20.1z M28.3,37.7c-1.2,0.2-2.1,1-2.1,1.9c0,1.1,1.3,1.5,1.3,1.6l0,0c-1.2,0-2.2-0.9-2.3-2.1c0-1.2,0.9-2.2,2.1-2.3l9.1-0.3
	c0.2,0,0.4,0,0.6,0.1L28.3,37.7z"/>
</svg>
