<svg version="1.1" xmlns="http://www.w3.org/2000/svg" xmlns:xlink="http://www.w3.org/1999/xlink" x="0px" y="0px"
	 viewBox="0 0 70 70" style="enable-background:new 0 0 70 70;" xml:space="preserve">
<style type="text/css">
	.st0{fill:#232323;}
</style>
<g>
	<path class="st0" d="M12.3,24.9l-0.4,1.5c-0.1,0.3,0.1,0.7,0.4,0.7l2.8,0.8c0.3,0.1,0.6-0.1,0.7-0.3l3,0.8l-0.8,3
		c-0.1,0.3,0.1,0.7,0.4,0.7l11.3,3.1l0.8-3c0.3-1.2,1.6-1.9,2.8-1.6l19.3,5.3c0.6,0.2-18.8-4.7-18.8-4.7c-1.2-0.3-2.4,0.4-2.8,1.6
		l-0.7,2.5l12,3.3c0,0-8.7-1.6-10.3-2C32.7,46.9,23,55.6,23,55.6s2.4,2,7.3,5.5c6.4-4,9-13.3,9.8-16.3c0,0,1,0.8,2.1,1.1
		c1.2,0.3,7.2,2,8.4,2.3L48.2,48c0.9,2.5,2,8.4,2,8.9c-0.1,0.6,4.9,0.5,5.6,0.4c0.7-0.1,1.6,0.4,1.1-1.3c-0.6-1.6-3.9-10.5-3.7-11.8
		c0.1-0.8,1.6-1.5,2.8-1.9l1.3,0.3c0.3,0.1,0.5-0.1,0.7-0.3l1.2,0.3c0.3,0.1,0.7-0.1,0.7-0.4l0.1-0.5l-9.2-3l10.2,2.8
		c0.3,0.1,0.7-0.1,0.7-0.4l0.8-2.8c0.1-0.3-0.1-0.7-0.4-0.7l-2.6-0.7l0-0.1c0.1-0.3-1.7-3.5-2-3.5l-1.2-0.3c0.8-0.1,1.1-0.5,0.8-1.1
		c-0.7-1.2-1.3-2.2-1.3-2.2c-0.8-1.4-2.7-1.9-4.1-1.1l-2.2,1.3c-0.6,0.4-0.5,0.8,0.1,1.4l-24.1-6.6l-0.2-1.6c0.1-0.3,0-0.8-0.3-1.1
		l-2.3-2.3c-0.3-0.3-0.5-0.2-0.6,0.1l-1,3.6c-0.3-0.1-0.6,0.1-0.7,0.4l-0.8,3l-3-0.8c0-0.3-0.1-0.6-0.4-0.6l-2.8-0.8
		C12.8,24.4,12.4,24.6,12.3,24.9z M25.9,56c-0.2,0.2-0.6,0-0.7-0.2c-0.1-0.2,0-0.5,0.2-0.6c7-5.3,8.3-16.4,8.3-16.4
		c0-0.3,0.3-0.5,0.6-0.4c0.3,0,0.5,0.3,0.5,0.5C34.8,38.8,33.7,50,25.9,56z M42.3,41.3l5.2,1.4c-0.1,0.5-0.2,1-0.5,1.4
		c-0.6,0.9-1.4,1.2-1.2,1.2c0.1,0,0.3,0,0.4,0c1,0,1.8-0.5,2.3-1.2L48.1,46c-0.1,0.3-0.4,0.4-0.7,0.3L42.5,45
		c-0.3-0.1-0.6-0.4-0.6-0.7l-0.2-2.4C41.6,41.5,41.9,41.2,42.3,41.3z M30.6,27.5c0.1-0.3,0.4-0.5,0.7-0.4l26,7.1
		c0.3,0.1,0.5,0.4,0.4,0.7c-0.1,0.3-0.4,0.5-0.7,0.4l-26-7.1C30.7,28.1,30.6,27.8,30.6,27.5z M27.3,31.2c0.1-0.3,0.4-0.5,0.7-0.4
		c0.3,0.1,0.5,0.4,0.4,0.7c-0.1,0.3-0.4,0.5-0.7,0.4C27.4,31.8,27.2,31.5,27.3,31.2z M25.2,30.6c0.1-0.3,0.4-0.5,0.7-0.4
		c0.3,0.1,0.5,0.4,0.4,0.7c-0.1,0.3-0.4,0.5-0.7,0.4C25.3,31.3,25.1,30.9,25.2,30.6z M23.1,30c0.1-0.3,0.4-0.5,0.7-0.4
		c0.3,0.1,0.5,0.4,0.4,0.7c-0.1,0.3-0.4,0.5-0.7,0.4C23.2,30.7,23,30.3,23.1,30z M20.9,29.4c0.1-0.3,0.4-0.5,0.7-0.4
		c0.3,0.1,0.5,0.4,0.4,0.7c-0.1,0.3-0.4,0.5-0.7,0.4C21,30.1,20.8,29.8,20.9,29.4z"/>
	<path class="st0" d="M15.1,47.2c-0.1-0.1-0.2-0.2-0.3-0.3c0.3-0.6,0.4-1.4,0.3-2.1c0.1,0,0.2-0.1,0.2-0.1c0,0,0,0,0,0c0,0,0,0,0,0
		c0,0,0,0,0,0c0.3-0.1,2.1-0.7,2.1-0.7l-2.1,0.5c0-0.6-0.3-1.1-0.7-1.6c-0.1-0.1-0.2-0.3-0.4-0.4c-0.1-0.1-0.2-0.2-0.3-0.2
		c0.1-0.1,0.1-0.2,0.2-0.3c0.4,0.3,0.6,0.6,0.8,0.7c-0.1-0.2-0.2-0.6-0.6-0.9c0.1-0.1,0.1-0.2,0.2-0.2c-0.1,0.1-0.2,0.1-0.2,0.2
		c-0.2-0.2-0.6-0.3-1.1-0.4c0.3,0.2,0.6,0.4,0.9,0.6c-0.1,0.1-0.2,0.2-0.3,0.3c-0.4-0.3-0.9-0.4-1.4-0.6c0.5,0.2,0.9,0.4,1.3,0.6
		c-0.2,0.3-0.4,0.5-0.5,0.7c-0.3-0.2-0.7-0.3-1.1-0.4c-0.1-0.3-0.2-0.7-0.3-1.1c0.1-0.1,0.2-0.2,0.3-0.3c-0.1,0.1-0.2,0.2-0.4,0.2
		c-0.1-0.5-0.2-1.1-0.3-1.7c0,0.7,0.1,1.3,0.1,1.8c-0.1,0-0.2,0-0.3,0c-0.2,0-0.4,0-0.5,0c-0.1-0.3-0.3-0.6-0.3-0.6l0.1,0.6
		c-0.8,0.2-1.5,0.7-2,1.3c0.4-0.5,1-0.9,1.7-1c0.1,0,0.2-0.1,0.3-0.1l0.1,0.3c-0.1,0-0.3,0.1-0.4,0.1c-1.1,0.3-1.8,1.2-2,2.3
		c-0.3,0-0.5-0.1-0.8-0.2c0.2,0.1,0.5,0.2,0.7,0.3c-0.1,0.5-0.1,1,0.1,1.5c0,0,0,0,0,0.1c-0.1,0-0.2,0-0.3,0c0.1,0,0.2,0,0.3,0
		c0.1,0.4,0.4,0.7,0.7,1c0.1,0.1,0.2,0.2,0.2,0.3c-0.1,0.2-0.3,0.4-0.4,0.6c-1.3-1.5-1.2-3.3-1.2-3.3c-0.1,1,0.1,2.4,1.1,3.5
		c-0.3,0.4-0.6,0.7-0.9,1.1c0.4-0.4,0.7-0.7,1-1c0.3,0.4,0.8,0.7,1.3,0.9c-0.2,0.5-0.3,1-0.5,1.4c0.3-0.3,0.5-0.8,0.8-1.3
		c0.5,0.2,1.1,0.4,1.7,0.4c-0.6-0.1-1.2-0.3-1.7-0.6c0.3-0.8,0.6-1.5,0.6-1.6c0,0,0.1,0,0.1,0c0.1,0,0.3,0.1,0.4,0.1
		c0,0.4,0.1,0.4-0.1,1.2c0.2-0.5,0.3-0.9,0.3-1.1c0.1,0,0.2,0,0.3,0c0.5,0,0.8,0,1.1-0.2c0,0.1,0.1,0.2,0.1,0.3c0,0,0,0,0,0
		c-0.2,0.2-0.4,0.4-0.4,0.9c0,0,0,0-0.1,0c-0.2,0.1-0.3,0.3-0.3,0.5c0.2-0.3,0.4-0.4,0.8-0.5c0.2,0,0.4-0.1,0.5-0.2
		c0.2,0.3,1.3,1.7,1.3,1.7l-1.1-1.8c0.4-0.2,0.8-0.5,1.3-1c0.3,0.1,0.7,0.2,1.1,0.4c-0.4-0.2-0.7-0.4-1-0.6c0.5-0.6,0.9-1.5,1.1-2.8
		C16.2,45.7,15.6,46.6,15.1,47.2z M9.9,42.7c0.1,0.2,0.3,0.7,0.2,0.8c-0.2,0.3-0.4,0.6-0.5,1c-0.2,0-0.6-0.1-0.9-0.1
		C8.8,43.7,9.2,43.1,9.9,42.7z M8.5,44.5c0.4,0.1,0.7,0.3,0.9,0.3c0,0.2-0.1,0.4-0.1,0.6c0,0.1,0,0.2,0,0.3C9,45.8,8.9,45.9,8.5,46
		C8.4,45.5,8.4,45,8.5,44.5z M9.3,47.1c-0.3-0.3-0.6-0.6-0.7-1.1c0.4,0,0.8,0.2,0.9,0.2c0.1,0.2,0.1,0.4,0.2,0.6
		c-0.1,0.1-0.2,0.3-0.3,0.4C9.4,47.2,9.3,47.2,9.3,47.1z M10.2,49c-0.5-0.3-0.8-0.6-1.1-0.9c0.4-0.4,0.7-0.7,0.9-0.9
		c0.1,0.2,0.2,0.5-0.1,1.4c0.1-0.1,0.6-0.9,0.7-1C10.6,47.9,10.4,48.4,10.2,49z M10.7,42.9c-0.2,0.1-0.6-0.1-0.8-0.2
		c0.2-0.1,0.5-0.2,0.7-0.3c0.1,0,0.2-0.1,0.3-0.1l0.1,0.5C10.9,42.8,10.8,42.9,10.7,42.9z M11,41.9c0-0.1-0.1-0.2-0.1-0.3
		c0.1,0,0.2,0,0.3,0C11.2,41.7,11.1,41.8,11,41.9z M11.1,42.7c0-0.1,0-0.3,0-0.4c0-0.1,0-0.1,0-0.2c0.2-0.1,0.3-0.3,0.4-0.6
		c0,0,0,0,0.1,0c0.1,0,0.1,0,0.2,0c0,0.5,0,0.8,0,1C11.5,42.6,11.3,42.6,11.1,42.7z M14.6,46.7c-0.2-0.3-0.2-0.5-0.2-0.6
		c0.1-0.1,0.2-0.3,0.5-0.3C14.9,46.1,14.8,46.4,14.6,46.7z M15,45.7c-0.3-0.2-0.4-0.4-0.4-0.7c0.2,0,0.3-0.1,0.4-0.1
		C15,45.2,15,45.4,15,45.7z M14,42.5c0.3,0.2,0.5,0.5,0.8,0.7c0.3,0.4,0.5,0.9,0.6,1.4l-0.3,0.1c-0.1-0.3-0.2-0.6-0.3-0.9
		c-0.2-0.3-0.4-0.6-0.7-0.8c0,0,0,0,0,0c0.2,0.2,0.4,0.4,0.6,0.6c0.2,0.3,0.3,0.7,0.3,1l-0.4,0.1c-0.1-0.6-0.4-1.2-0.9-1.5
		C13.8,42.9,13.9,42.8,14,42.5z M13.5,47.4L13.5,47.4C13.5,47.4,13.5,47.4,13.5,47.4C13.5,47.4,13.5,47.4,13.5,47.4
		c0.1-0.1,0.3-0.1,0.7-0.1c-0.2,0.2-0.4,0.3-0.6,0.5c0,0,0,0,0,0l-0.2-0.3C13.4,47.4,13.4,47.4,13.5,47.4z M13.1,48.7
		C13.1,48.7,13.1,48.7,13.1,48.7c0-0.3,0.1-0.4,0.3-0.5c0.1,0.1,0.1,0.2,0.2,0.3C13.5,48.6,13.3,48.6,13.1,48.7z M14,48.1
		c-0.1,0.1-0.2,0.1-0.2,0.1L13.7,48c0,0,0.1,0,0.1-0.1c0.3-0.2,0.5-0.4,0.7-0.6c0.1,0,0.2,0.1,0.3,0.1C14.6,47.8,14.2,48,14,48.1z"
		/>
	<path class="st0" d="M19.1,42.4c0-0.1,0-0.2,0-0.3c0.6-0.1,1.1-0.5,1.5-0.9c0.1,0,0.1,0.1,0.2,0.1c0,0,0,0,0,0c0,0,0,0,0,0
		c0,0,0,0,0,0c0.3,0.1,1.6,1,1.6,1l-1.5-1.1c0.3-0.3,0.6-0.8,0.7-1.3c0-0.2,0-0.3,0.1-0.5c0-0.1,0-0.2,0-0.3c0.1,0,0.2,0,0.3,0
		c0,0.4,0,0.7,0,0.9c0.1-0.2,0.3-0.5,0.3-0.9c0.1,0,0.2,0,0.3,0c-0.1,0-0.2,0-0.3-0.1c0-0.2-0.1-0.6-0.3-0.9
		c0.1,0.3,0.1,0.6,0.1,0.9c-0.1,0-0.2,0-0.3,0c-0.1-0.4-0.2-0.8-0.4-1.2c0.2,0.4,0.3,0.8,0.3,1.2c-0.3,0-0.6,0-0.7,0
		c-0.1-0.3-0.2-0.7-0.3-1c0.1-0.2,0.4-0.5,0.6-0.8c0.1,0,0.3,0,0.4,0c-0.1,0-0.2-0.1-0.3-0.1c0.3-0.4,0.6-0.7,0.9-1.1
		c-0.4,0.4-0.8,0.7-1.1,1c-0.1-0.1-0.1-0.1-0.2-0.2c-0.1-0.1-0.2-0.2-0.3-0.3c0.1-0.3,0.2-0.5,0.2-0.5l-0.3,0.4
		c-0.6-0.4-1.3-0.6-1.9-0.6c0.6,0,1.1,0.2,1.6,0.6c0.1,0,0.1,0.1,0.2,0.1l-0.2,0.2c-0.1-0.1-0.2-0.1-0.3-0.2
		c-0.8-0.6-1.8-0.5-2.6-0.1c-0.1-0.2-0.2-0.4-0.3-0.6c0.1,0.2,0.1,0.4,0.2,0.6c-0.4,0.2-0.7,0.5-0.9,0.8c0,0,0,0,0,0
		c0,0-0.1-0.1-0.2-0.2c0,0.1,0.1,0.1,0.1,0.2c-0.2,0.3-0.3,0.6-0.3,1c0,0.1,0,0.2-0.1,0.3c-0.2,0-0.4,0-0.6,0
		c0.3-1.6,1.5-2.6,1.5-2.6c-0.7,0.5-1.5,1.4-1.7,2.6c-0.4,0-0.8,0-1.2,0c0.4,0,0.8,0.1,1.2,0.1c0,0.4,0,0.9,0.1,1.3
		c-0.4,0.2-0.8,0.3-1.2,0.4c0.3,0,0.8-0.1,1.3-0.2c0.1,0.4,0.3,0.9,0.7,1.4c-0.3-0.5-0.4-1-0.5-1.4c0.7-0.2,1.3-0.4,1.3-0.5
		c0,0,0,0.1,0,0.1c0,0.1,0.1,0.2,0.2,0.3c-0.3,0.2-0.3,0.3-0.8,0.6c0.4-0.1,0.8-0.3,0.9-0.4c0,0.1,0.1,0.1,0.2,0.2
		c0.3,0.3,0.5,0.5,0.7,0.7c-0.1,0.1-0.1,0.2-0.1,0.2c0,0,0,0,0,0c-0.2-0.1-0.5-0.1-0.8,0.2c0,0,0,0,0,0c-0.2,0-0.3,0-0.5,0.1
		c0.3,0,0.5,0.1,0.7,0.2c0.1,0.1,0.3,0.2,0.4,0.2c-0.1,0.3-0.4,1.8-0.4,1.8l0.6-1.7c0.3,0.1,0.8,0.3,1.3,0.3c0.1,0.3,0.2,0.6,0.3,1
		c-0.1-0.4-0.1-0.7-0.2-1c0.7,0,1.5-0.2,2.4-0.8C20.6,42.3,19.8,42.4,19.1,42.4z M19.2,36.6c-0.1,0.2-0.3,0.6-0.5,0.6
		c-0.3,0-0.7,0.1-1,0.2c-0.1-0.2-0.2-0.4-0.4-0.7C17.9,36.4,18.6,36.3,19.2,36.6z M17.2,36.7c0.1,0.3,0.2,0.6,0.3,0.7
		c-0.2,0.1-0.3,0.2-0.4,0.3c-0.1,0.1-0.1,0.1-0.2,0.2c-0.2-0.2-0.3-0.2-0.6-0.4C16.5,37.2,16.8,36.9,17.2,36.7z M15.9,38.6
		c0-0.4,0.1-0.7,0.3-1c0.2,0.3,0.3,0.7,0.4,0.7c-0.1,0.2-0.2,0.3-0.2,0.4c-0.1,0-0.3,0-0.5,0C15.9,38.7,15.9,38.7,15.9,38.6z
		 M15.2,40.2c-0.1-0.4-0.1-0.9,0-1.2c0.5,0.1,0.9,0.1,1.1,0.1c0,0.2-0.2,0.4-1,0.7c0.1,0,0.9-0.1,1-0.1
		C16.1,39.9,15.7,40.1,15.2,40.2z M19.5,37.2c-0.2-0.1-0.3-0.4-0.3-0.7c0.2,0.1,0.4,0.2,0.6,0.3c0.1,0,0.1,0.1,0.2,0.1l-0.3,0.3
		C19.6,37.3,19.5,37.3,19.5,37.2z M20.3,36.9c0-0.1,0.1-0.1,0.1-0.2c0.1,0.1,0.1,0.1,0.2,0.2C20.5,36.9,20.4,36.9,20.3,36.9z
		 M19.8,37.4c0.1-0.1,0.2-0.1,0.2-0.2c0,0,0.1-0.1,0.1-0.1c0.2,0,0.3,0,0.6-0.1c0,0,0,0,0,0c0,0,0.1,0.1,0.1,0.1
		c-0.3,0.3-0.5,0.5-0.7,0.6C20.1,37.6,20,37.5,19.8,37.4z M19.1,41.8c0.1-0.3,0.2-0.4,0.3-0.5c0.1,0,0.3,0,0.5,0.2
		C19.7,41.7,19.4,41.8,19.1,41.8z M20,41.5c0-0.3,0-0.5,0.2-0.6c0.1,0.1,0.2,0.2,0.3,0.2C20.3,41.3,20.2,41.4,20,41.5z M21.5,39.2
		c0,0.3,0,0.6-0.1,0.9c-0.1,0.4-0.3,0.8-0.5,1.1l-0.2-0.1c0.2-0.2,0.3-0.5,0.4-0.7c0.1-0.3,0.1-0.6,0.1-0.9c0,0,0,0,0,0
		c0,0.2,0,0.5-0.1,0.7c-0.1,0.3-0.3,0.6-0.5,0.8l-0.3-0.2c0.4-0.4,0.5-0.9,0.5-1.4C21.1,39.3,21.3,39.2,21.5,39.2z M18,41.5L18,41.5
		L18,41.5C18.1,41.5,18.1,41.5,18,41.5c0.1,0,0.2,0.1,0.4,0.4c-0.2,0-0.4-0.1-0.6-0.2c0,0,0,0,0,0l0.1-0.3
		C17.9,41.5,18,41.5,18,41.5z M17,41.9C17,41.9,17,41.9,17,41.9c0.2-0.1,0.3-0.1,0.5-0.1c0,0.1-0.1,0.2-0.1,0.3
		C17.3,42.1,17.1,42.1,17,41.9z M17.9,42.2c-0.1,0-0.2-0.1-0.2-0.1l0.1-0.2c0,0,0.1,0,0.1,0c0.3,0.1,0.5,0.1,0.8,0.1
		c0,0.1,0.1,0.2,0.1,0.3C18.4,42.4,18,42.3,17.9,42.2z"/>
	<path class="st0" d="M48.4,15.3c-0.1-0.1-0.2-0.2-0.2-0.2c0.3-0.5,0.4-1.2,0.3-1.8c0.1,0,0.1-0.1,0.2-0.1c0,0,0,0,0,0c0,0,0,0,0,0
		c0,0,0,0,0,0c0.3-0.1,1.7-0.6,1.7-0.6l-1.8,0.5c0-0.5-0.2-0.9-0.6-1.3c-0.1-0.1-0.2-0.2-0.3-0.3c-0.1-0.1-0.2-0.1-0.3-0.2
		c0-0.1,0.1-0.2,0.2-0.3c0.3,0.2,0.5,0.5,0.6,0.6c-0.1-0.2-0.2-0.5-0.5-0.8c0-0.1,0.1-0.1,0.2-0.2c-0.1,0.1-0.1,0.1-0.2,0.2
		c-0.2-0.1-0.5-0.3-0.9-0.3c0.3,0.1,0.5,0.3,0.7,0.5c-0.1,0.1-0.2,0.2-0.2,0.2c-0.4-0.2-0.8-0.4-1.2-0.5c0.4,0.1,0.8,0.3,1.1,0.5
		c-0.2,0.2-0.3,0.4-0.4,0.6c-0.3-0.2-0.6-0.3-0.9-0.3c-0.1-0.2-0.1-0.6-0.2-1c0.1-0.1,0.2-0.2,0.3-0.3c-0.1,0.1-0.2,0.1-0.3,0.2
		c-0.1-0.4-0.2-0.9-0.3-1.4c0,0.6,0,1.1,0.1,1.5c-0.1,0-0.2,0-0.2,0c-0.2,0-0.3,0-0.5,0c-0.1-0.3-0.3-0.5-0.3-0.5l0.1,0.5
		c-0.7,0.1-1.3,0.6-1.7,1.1c0.4-0.4,0.9-0.7,1.5-0.9c0.1,0,0.2,0,0.2-0.1l0.1,0.3c-0.1,0-0.2,0.1-0.3,0.1c-0.9,0.3-1.5,1-1.7,1.9
		c-0.2,0-0.5-0.1-0.6-0.2c0.2,0.1,0.4,0.2,0.6,0.2c-0.1,0.4-0.1,0.9,0,1.3c0,0,0,0,0,0.1c-0.1,0-0.1,0-0.2,0c0.1,0,0.2,0,0.2,0
		c0.1,0.3,0.3,0.6,0.6,0.8c0.1,0.1,0.2,0.2,0.2,0.3c-0.1,0.1-0.2,0.3-0.3,0.5c-1.1-1.3-1-2.8-1-2.8c-0.1,0.8,0.1,2,0.9,2.9
		c-0.2,0.3-0.5,0.6-0.7,0.9c0.3-0.3,0.6-0.6,0.8-0.8c0.3,0.3,0.6,0.6,1.1,0.8c-0.1,0.4-0.3,0.8-0.5,1.2c0.2-0.3,0.4-0.7,0.6-1.1
		c0.4,0.2,0.9,0.3,1.5,0.4c-0.5-0.1-1-0.3-1.4-0.5c0.3-0.6,0.5-1.3,0.5-1.3c0,0,0.1,0,0.1,0c0.1,0,0.2,0.1,0.3,0.1
		c0,0.3,0.1,0.4-0.1,1c0.2-0.4,0.2-0.8,0.3-1c0.1,0,0.2,0,0.3,0c0.4,0,0.7,0,1-0.1c0,0.1,0,0.2,0.1,0.3c0,0,0,0,0,0
		c-0.2,0.1-0.3,0.3-0.4,0.7c0,0,0,0-0.1,0c-0.1,0.1-0.2,0.2-0.3,0.4c0.1-0.2,0.4-0.3,0.7-0.4c0.2,0,0.3-0.1,0.4-0.2
		c0.2,0.2,1.1,1.5,1.1,1.5l-1-1.5c0.3-0.1,0.7-0.4,1.1-0.8c0.3,0.1,0.6,0.2,1,0.4c-0.4-0.2-0.6-0.3-0.9-0.5c0.4-0.5,0.7-1.3,0.9-2.4
		C49.3,14,48.9,14.8,48.4,15.3z M44,11.5c0,0.2,0.2,0.6,0.1,0.7c-0.2,0.3-0.4,0.5-0.5,0.9c-0.2,0-0.5-0.1-0.8-0.1
		C43.1,12.4,43.4,11.8,44,11.5z M42.9,13.1c0.3,0.1,0.6,0.2,0.7,0.3c0,0.2-0.1,0.3-0.1,0.5c0,0.1,0,0.2,0,0.3
		c-0.3,0.1-0.4,0.1-0.7,0.2C42.8,13.9,42.8,13.5,42.9,13.1z M43.5,15.3c-0.3-0.2-0.5-0.5-0.6-0.9c0.3,0,0.7,0.2,0.8,0.2
		c0.1,0.2,0.1,0.3,0.2,0.5c-0.1,0.1-0.2,0.2-0.3,0.4C43.6,15.4,43.5,15.3,43.5,15.3z M44.3,16.9c-0.4-0.2-0.7-0.5-1-0.8
		c0.4-0.4,0.6-0.6,0.8-0.8c0.1,0.2,0.2,0.4,0,1.2c0.1-0.1,0.5-0.8,0.6-0.8C44.6,16,44.4,16.4,44.3,16.9z M44.7,11.7
		c-0.2,0.1-0.5-0.1-0.7-0.2c0.2-0.1,0.4-0.2,0.6-0.3c0.1,0,0.2,0,0.2-0.1l0.1,0.4C44.9,11.6,44.8,11.7,44.7,11.7z M44.9,10.8
		c0-0.1,0-0.1-0.1-0.2c0.1,0,0.2,0,0.3,0C45.1,10.7,45,10.8,44.9,10.8z M45,11.5c0-0.1,0-0.2,0-0.3c0-0.1,0-0.1,0-0.1
		c0.1-0.1,0.2-0.2,0.3-0.5c0,0,0,0,0,0c0,0,0.1,0,0.1,0c0,0.4,0,0.7,0,0.9C45.4,11.5,45.2,11.5,45,11.5z M48,14.9
		c-0.2-0.2-0.2-0.4-0.2-0.5c0.1-0.1,0.2-0.2,0.5-0.2C48.2,14.4,48.1,14.7,48,14.9z M48.3,14.1c-0.2-0.1-0.3-0.3-0.3-0.6
		c0.1,0,0.3,0,0.4-0.1C48.3,13.6,48.3,13.8,48.3,14.1z M47.5,11.4c0.2,0.2,0.5,0.4,0.7,0.6c0.3,0.3,0.5,0.7,0.5,1.1l-0.2,0.1
		c-0.1-0.3-0.2-0.5-0.3-0.8c-0.1-0.3-0.4-0.5-0.6-0.6c0,0,0,0,0,0c0.2,0.1,0.4,0.3,0.5,0.5c0.2,0.3,0.2,0.6,0.3,0.9l-0.4,0.1
		c-0.1-0.5-0.4-1-0.8-1.3C47.3,11.7,47.4,11.6,47.5,11.4z M47,15.5L47,15.5C47,15.5,47,15.5,47,15.5C47,15.5,47.1,15.5,47,15.5
		c0.1-0.1,0.3-0.1,0.6-0.1c-0.2,0.1-0.3,0.3-0.5,0.4c0,0,0,0,0,0l-0.1-0.2C47,15.5,47,15.5,47,15.5z M46.7,16.6
		C46.7,16.6,46.7,16.6,46.7,16.6c0-0.2,0.1-0.3,0.3-0.4c0.1,0.1,0.1,0.2,0.2,0.3C47.1,16.5,46.9,16.5,46.7,16.6z M47.5,16.1
		c-0.1,0-0.1,0.1-0.2,0.1l-0.1-0.2c0,0,0.1,0,0.1-0.1c0.2-0.1,0.5-0.3,0.6-0.5c0.1,0,0.2,0,0.3,0.1C47.9,15.8,47.7,16,47.5,16.1z"/>
</g>
</svg>
