<svg version="1.1" xmlns="http://www.w3.org/2000/svg" xmlns:xlink="http://www.w3.org/1999/xlink" x="0px" y="0px"
	 viewBox="0 0 70 70" style="enable-background:new 0 0 70 70;" xml:space="preserve">
<style type="text/css">
	.st0{fill:#232323;}
</style>
<path class="st0" d="M61.3,18.9v-1c-1.6-0.3-3.8,0.1-6.5,0.7C50.2,16.4,43.6,15,43.6,15v6.1c-2.9,0.5-5.8,0.7-8.6,0.4
	c-0.1-0.2-0.1-0.4-0.2-0.5c-2-3.5-12.5-6.9-12.5-6.9l-0.4,4.2c-5.1-0.8-9.7-0.8-13.2,0.1v1c3.4-0.8,8-0.9,13-0.1l-0.5,5
	c-4.9-0.7-9.3-0.6-12.6,0.2v1c3.2-0.8,7.6-0.9,12.5-0.2l-0.5,5c-4.6-0.6-8.8-0.5-12,0.3v1c3.1-0.8,7.3-0.9,11.9-0.3l-0.5,5
	c-0.8-0.1-1.6-0.2-2.4-0.2c-0.4-0.1-0.9-0.3-1.4-0.3c-0.9-0.1-1.7,0-2.5,0.2c-1.9,0.1-3.6,0.3-5.1,0.6v1c0.9-0.2,1.8-0.4,2.8-0.5
	c-1.3,1.1-2.2,2.6-2.4,4.4c0,0.4,0,0.7,0,1.1c-0.2,0-0.3,0.1-0.5,0.1v1c0.2,0,0.4-0.1,0.6-0.1c0.6,2.6,2.8,4.7,5.7,5
	c3.3,0.3,6.2-1.8,6.9-4.9c2.9,0.5,6,1.2,9.1,2.3c0.3,0.1,0.6,0.2,0.9,0.3c-0.1,0.6-0.2,1.2-0.2,1.8c0,4.1,3.4,7.5,7.5,7.5
	c4.1,0,7.5-3.4,7.5-7.5v-2.2c6-1.3,11.5-3.1,14.5-2.6v-1c-3-0.5-8.5,1.4-14.5,2.6V40c6-1.3,11.5-3.1,14.5-2.6v-1
	c-3-0.5-8.5,1.4-14.5,2.6v-5.1c6-1.3,11.5-3.1,14.5-2.6v-1c-3-0.5-8.5,1.4-14.5,2.6v-5.1c3.5-0.7,6.9-1.7,9.7-2.2
	c1.1,0.6,2,1.3,2.5,2.1c0.1,0.1,0.2,0.2,0.2,0.4c0.5-0.5,0.7-1.7,0.6-2.9c0.6,0,1.1,0,1.5,0.1v-1c-0.5-0.1-1-0.1-1.6-0.1
	c-0.1-1-0.4-1.9-0.8-2.5c-0.5-0.8-1.5-1.5-2.7-2.2C58.2,18.9,60,18.7,61.3,18.9z M23.6,28.3c2.9,1.1,7.5,3.1,9.3,5.2
	c-0.6-0.1-1.2-0.3-1.8-0.5c-2.6-0.9-5.2-1.6-7.8-2.1L23.6,28.3z M20,37.5L20,37.5C20,37.6,19.9,37.5,20,37.5
	C19.9,37.5,20,37.5,20,37.5z M31.1,45.2c-3-1.1-6.1-1.8-8.9-2.3l0.5-5c2.7,0.5,5.6,1.2,8.4,2.2c1.9,0.7,4,1,6.1,1
	c-2.3,0.6-4.1,2.3-5,4.5C31.9,45.5,31.5,45.4,31.1,45.2z M43.6,42.3c-0.9-0.7-1.9-1.1-3.1-1.3c1-0.1,2-0.2,3.1-0.4V42.3z M43.6,39.6
	c-4.3,0.7-8.7,0.9-12.6-0.5c-2.8-1-5.6-1.7-8.3-2.2l0.5-5c2.6,0.5,5.2,1.2,7.9,2.1c3.9,1.3,8.3,1.2,12.6,0.5V39.6z M43.6,33.4
	c-3.2,0.5-6.5,0.8-9.6,0.3c0.5-1.3,0.5-3.6-0.1-4.7c-0.1-0.2-0.2-0.4-0.4-0.5c3.2,0.6,6.7,0.4,10.1-0.2V33.4z M46.7,26.7v-4.9
	c2.4,0.6,5.6,1.6,8.3,2.9C52.5,25.3,49.7,26.1,46.7,26.7z M43.6,27.3c-3.9,0.6-8,0.8-11.6-0.2c-2.2-1.6-5.6-3.1-8-4l0.3-2.9
	c3.3,1.2,8.6,3.5,9.9,5.9c0.1,0.1,0.1,0.2,0.2,0.3c0.6-0.6,0.9-2.4,0.8-3.9c2.7,0.3,5.6,0,8.4-0.4V27.3z"/>
</svg>
