<svg version="1.1" xmlns="http://www.w3.org/2000/svg" xmlns:xlink="http://www.w3.org/1999/xlink" x="0px" y="0px"
	 viewBox="0 0 70 70" style="enable-background:new 0 0 70 70;" xml:space="preserve">
<style type="text/css">
	.st0{fill:#232323;}
</style>
<path class="st0" d="M48.6,23.5l0-5H34.9H21.2l0,5.1L3.8,27.8l3.9,15.6c1.6,5.8,7.4,9.2,13.2,7.8c2.1-0.5,3.8-1.5,5.2-2.9
	c0,0,0.1,0.1,0.1,0.1c0.1,0.1,0.2,0.2,0.3,0.2c0.2,0.2,0.5,0.4,0.8,0.6c0.1,0.1,0.2,0.1,0.3,0.2c0.3,0.2,0.5,0.3,0.8,0.5
	c0.1,0.1,0.2,0.1,0.3,0.2c0.3,0.2,0.6,0.3,0.9,0.4c0.1,0,0.2,0.1,0.3,0.1c0.3,0.1,0.6,0.2,0.9,0.3c0.1,0,0.2,0.1,0.3,0.1
	c0.3,0.1,0.6,0.2,1,0.2c0.1,0,0.2,0.1,0.3,0.1c0.3,0.1,0.7,0.1,1,0.2c0.1,0,0.2,0,0.3,0.1c0.3,0,0.7,0,1,0.1c0.1,0,0.2,0,0.4,0v0
	c0,0,0.1,0,0.1,0c3.5,0,6.6-1.3,9-3.4c1.4,1.4,3.2,2.4,5.2,2.9c5.8,1.4,11.6-2,13.2-7.8l3.9-15.6L48.6,23.5z M55.6,33.9
	c0.1-0.3,0.4-0.4,0.7-0.3l3.7,1.6c0.3,0.1,0.4,0.4,0.3,0.7c-0.1,0.3-0.4,0.4-0.7,0.3l-3.7-1.6C55.6,34.5,55.5,34.2,55.6,33.9z
	 M53.3,27.2c0.3,0.1,0.4,0.5,0.2,0.7c-0.1,0.3-0.5,0.4-0.7,0.2c-1.3-0.7-2.9-0.6-4.1,0.1l0-1.2C50.1,26.4,51.8,26.4,53.3,27.2z
	 M43.9,30c-0.1,0.4-0.4,0.6-0.8,0.5l-4.9-0.9c-0.4-0.1-0.6-0.4-0.5-0.8s0.4-0.6,0.8-0.5l4.9,0.9C43.7,29.3,44,29.7,43.9,30z
	 M48.6,32.2l2.2,0.1c0.3,0,0.5,0.3,0.5,0.6c0,0.3-0.3,0.5-0.6,0.5l-2.1-0.1L48.6,32.2z M37,21.5c2.6-0.7,5.4,0.4,6.9,2.6
	c0.2,0.3,0.1,0.7-0.2,0.9c-0.1,0.1-0.2,0.1-0.4,0.1c-0.2,0-0.4-0.1-0.5-0.3c-1.2-1.8-3.4-2.6-5.5-2.1c-0.4,0.1-0.7-0.1-0.8-0.5
	C36.5,22,36.7,21.6,37,21.5z M26,24.1c1.5-2.2,4.3-3.3,6.9-2.6c0.4,0.1,0.6,0.5,0.5,0.8s-0.5,0.6-0.8,0.5c-2.1-0.5-4.3,0.3-5.5,2.1
	c-0.1,0.2-0.3,0.3-0.5,0.3c-0.1,0-0.3,0-0.4-0.1C25.8,24.8,25.8,24.4,26,24.1z M21.3,33.2l-2.1,0.1c-0.3,0-0.5-0.2-0.6-0.5
	c0-0.3,0.2-0.5,0.5-0.6l2.1-0.1L21.3,33.2z M26.1,30c-0.1-0.4,0.2-0.7,0.5-0.8l4.9-0.9c0.4-0.1,0.7,0.2,0.8,0.5s-0.2,0.7-0.5,0.8
	l-4.9,0.9C26.5,30.6,26.1,30.4,26.1,30z M16.7,27.2c1.4-0.8,3.1-0.8,4.6-0.2l0,1.2c-1.2-0.7-2.8-0.8-4.1-0.1c-0.3,0.1-0.6,0-0.7-0.2
	C16.4,27.6,16.5,27.3,16.7,27.2z M14.4,33.9c0.1,0.3,0,0.6-0.3,0.7l-3.7,1.6c-0.3,0.1-0.6,0-0.7-0.3c-0.1-0.3,0-0.6,0.3-0.7l3.7-1.6
	C14,33.5,14.3,33.6,14.4,33.9z M8.6,31.3c0.8-2,2.8-3.4,4.9-3.3c0.3,0,0.5,0.2,0.5,0.5c0,0.3-0.2,0.5-0.5,0.5c-1.7,0-3.3,1-3.9,2.7
	C9.5,31.9,9.4,32,9.2,32c-0.1,0-0.2,0-0.3,0C8.6,31.9,8.5,31.6,8.6,31.3z M10.1,39.9c-0.5,0-0.9-0.4-0.9-0.9c0-0.5,0.5-1.3,0.9-1.6
	c0.3,0.3,0.9,1.1,0.9,1.6C11,39.4,10.6,39.9,10.1,39.9z M19.3,45.1c-0.9,0.2-2.2,1.1-3.5,2.1c-1.8,1.4-3.9-0.2-2.2-3
	c1-1.7,2.7-2.9,4.7-3.4c1.1-0.3,2.3-0.3,3.3-0.1c0,0.1,0,0.2,0.1,0.3c0,0.2,0.1,0.4,0.2,0.6c0.1,0.2,0.1,0.4,0.2,0.6
	c0.1,0.2,0.2,0.4,0.2,0.6c0.1,0.2,0.1,0.4,0.2,0.6c0.1,0.2,0.2,0.4,0.3,0.6c0.1,0.2,0.2,0.4,0.3,0.5c0.1,0.2,0.3,0.4,0.4,0.6
	c0,0,0,0-0.1,0C21.9,45,20.2,44.8,19.3,45.1z M39.8,45.3c-1.8-0.8-3.8-1.5-4.9-1.5c-1.1,0-3,0.7-4.8,1.5c-2.6,1.1-4.6-1.4-1.8-4.2
	c1.7-1.7,4.1-2.8,6.7-2.8c2.6,0,5,1.1,6.7,2.8C44.4,43.8,42.4,46.4,39.8,45.3z M54.2,47.1c-1.3-1-2.7-1.9-3.5-2.1
	c-0.9-0.2-2.5,0-4.1,0.2c-0.1,0-0.1,0-0.2,0c0.9-1.4,1.5-2.9,1.9-4.6c1.1-0.2,2.3-0.2,3.4,0c2,0.5,3.7,1.8,4.7,3.4
	C58.1,46.9,56,48.5,54.2,47.1z M59.7,39.9c-0.5,0-0.9-0.4-0.9-0.9c0-0.5,0.5-1.3,0.9-1.6c0.3,0.3,0.9,1.1,0.9,1.6
	C60.6,39.4,60.2,39.9,59.7,39.9z M61.1,32c-0.1,0-0.2,0-0.3,0c-0.2,0-0.3-0.2-0.4-0.3c-0.6-1.6-2.2-2.7-3.9-2.7
	c-0.3,0-0.5-0.2-0.5-0.5c0-0.3,0.2-0.5,0.5-0.5c2.2,0,4.2,1.3,4.9,3.3C61.5,31.6,61.4,31.9,61.1,32z"/>
</svg>
