<svg version="1.1" xmlns="http://www.w3.org/2000/svg" xmlns:xlink="http://www.w3.org/1999/xlink" x="0px" y="0px"
	 viewBox="0 0 70 70" style="enable-background:new 0 0 70 70;" xml:space="preserve">
<style type="text/css">
	.st0{fill:#232323;}
</style>
<g>
	<path class="st0" d="M60.6,31.6c0,14.8-11.4,23.7-25.6,23.7c-14.1,0-25.6-8.9-25.6-23.7c0-8.9,5.2-7.7,11.2-5.4
		c-0.7,2.8-2.1,5.3-2.8,6.9c0,7.6,6,15.8,17.2,15.8c11.3,0,17.2-8.2,17.2-15.8c-1-1.9-2.6-4.2-3.2-6.8
		C55.2,23.9,60.6,22.7,60.6,31.6z"/>
	<path class="st0" d="M41.9,15.2c-2.1-1.9-4.4,1.4-6.8,1.4c-2.4,0-4.7-3.3-6.8-1.4c1.4,3.8,3.9,7.6,6.8,7.6
		C38,22.8,40.5,19,41.9,15.2z"/>
	<g>
		<path class="st0" d="M30.9,37.9l-2.3-2.2l4.4-0.6l2-4l2,4l4.4,0.6l-2.3,2.3c4.2-1,7.7-3.7,9.5-7.3L49,30
			c-2.6-5.2-2.7-10.3-6.4-13.7c-0.9,2.2-3.5,7.8-7.5,7.8c-4,0-6.6-5.6-7.5-7.8c-3.7,3.3-4.3,8.1-6.5,13.4l0.3,0.7
			C23.2,34.1,26.7,36.8,30.9,37.9z"/>
		<path class="st0" d="M49.5,31.5c-2,4-6.2,7.1-11.2,8l0.7,4.1l-4-2.1l-4,2.1l0.7-4.2c-5.1-1-9.3-4.1-11.2-8.2
			c-0.4,0.8-0.7,1.5-1.2,2.3c0,7.6,7,13.7,15.7,13.7s15.7-6.1,15.7-13.7C50.3,32.9,49.9,32.2,49.5,31.5z"/>
	</g>
	<polygon class="st0" points="33.4,40.4 35.1,39.5 36.7,40.4 36.4,38.6 37.7,37.3 35.9,37 35.1,35.3 34.2,37 32.4,37.3 33.7,38.6 	
		"/>
</g>
</svg>
