<svg version="1.1" xmlns="http://www.w3.org/2000/svg" xmlns:xlink="http://www.w3.org/1999/xlink" x="0px" y="0px"
	 viewBox="0 0 70 70" style="enable-background:new 0 0 70 70;" xml:space="preserve">
<style type="text/css">
	.st0{fill:#232323;}
</style>
<g>
	<g>
		<path class="st0" d="M43.5,30c0-4.6-3.7-8.3-8.3-8.3S27,25.5,27,30c0,4.6,3.7,8.3,8.3,8.3S43.5,34.6,43.5,30z M38.5,25.7
			c1-0.6,2.4-0.2,3,0.8c0.6,1,0.2,2.4-0.8,3c-1,0.6-2.4,0.2-3-0.8C37.1,27.6,37.4,26.3,38.5,25.7z M35.2,22.9c1.2,0,2.2,1,2.2,2.2
			c0,1.2-1,2.2-2.2,2.2s-2.2-1-2.2-2.2C33.1,23.9,34,22.9,35.2,22.9z M36,30c0,0.4-0.3,0.8-0.8,0.8s-0.8-0.3-0.8-0.8
			c0-0.4,0.3-0.8,0.8-0.8S36,29.6,36,30z M29.1,26.4c0.6-1,1.9-1.4,3-0.8c1,0.6,1.4,1.9,0.8,3c-0.6,1-1.9,1.4-3,0.8
			C28.8,28.8,28.5,27.5,29.1,26.4z M32,34.4c-1,0.6-2.4,0.2-3-0.8c-0.6-1-0.2-2.4,0.8-3c1-0.6,2.4-0.2,3,0.8
			C33.4,32.5,33.1,33.8,32,34.4z M35.2,37.2c-1.2,0-2.2-1-2.2-2.2c0-1.2,1-2.2,2.2-2.2s2.2,1,2.2,2.2C37.4,36.2,36.4,37.2,35.2,37.2
			z M38.4,34.4c-1-0.6-1.4-1.9-0.8-3c0.6-1,1.9-1.4,3-0.8c1,0.6,1.4,1.9,0.8,3C40.8,34.7,39.5,35,38.4,34.4z"/>
		<path class="st0" d="M50.1,37.3h-7.5c-0.9,0-1.6-0.1-2.2-0.2c-0.1,0-0.2,0-0.2,0.1c-0.3,0.2-0.6,0.4-0.9,0.5c-0.1,0-0.1,0.1,0,0.2
			c0.8,0.3,1.8,0.4,3.3,0.4h7.5c0.1,0,0.2-0.1,0.2-0.2v-0.7C50.3,37.3,50.2,37.3,50.1,37.3z"/>
		<path class="st0" d="M35.2,26.9c0.9,0,1.7-0.7,1.8-1.6c0-0.1,0-0.1-0.1-0.2c-0.5-0.2-1.1-0.3-1.7-0.3c-0.6,0-1.1,0.1-1.7,0.3
			c-0.1,0-0.1,0.1-0.1,0.2C33.5,26.1,34.3,26.9,35.2,26.9z"/>
		<path class="st0" d="M30.2,29.1c0.8,0.4,1.8,0.1,2.3-0.7c0.5-0.8,0.2-1.8-0.5-2.3c-0.1,0-0.1,0-0.2,0c-0.8,0.7-1.4,1.7-1.7,2.9
			C30.1,29,30.1,29.1,30.2,29.1z"/>
		<path class="st0" d="M37.8,27.8c0.1,0.7,0.6,1.3,1.3,1.5c0.4,0.1,0.8,0.1,1.2-0.1c0.1,0,0.1-0.1,0.1-0.2c-0.2-1.1-0.8-2.1-1.7-2.9
			c-0.1,0-0.1-0.1-0.2,0C38,26.5,37.7,27.1,37.8,27.8C37.8,27.8,37.8,27.8,37.8,27.8z"/>
		<path class="st0" d="M40.3,31c-0.2-0.1-0.5-0.2-0.8-0.2c-0.2,0-0.3,0-0.5,0.1c-0.7,0.2-1.2,0.7-1.3,1.5c0,0,0,0,0,0
			C37.7,33,38,33.6,38.5,34c0.1,0,0.1,0,0.2,0c0.8-0.7,1.4-1.7,1.7-2.9C40.4,31.1,40.3,31,40.3,31z"/>
		<path class="st0" d="M30.9,30.7c-0.3,0-0.5,0.1-0.7,0.2c-0.1,0-0.1,0.1-0.1,0.2c0.2,1.1,0.8,2.1,1.7,2.9c0.1,0,0.1,0.1,0.2,0
			c0.8-0.5,1-1.5,0.5-2.3C32.1,31.1,31.6,30.7,30.9,30.7z"/>
		<path class="st0" d="M36.9,35.3c-0.1,0-0.2-0.1-0.3-0.1c0,0,0-0.1,0-0.1l0.2-0.1c0.1,0,0.1-0.1,0.1-0.2c-0.1-0.9-0.8-1.6-1.8-1.6
			c-0.9,0-1.7,0.7-1.8,1.6c0,0.1,0,0.1,0.1,0.2c0.1,0,0.1,0,0.2,0.1c0.6,0.2,1.1,0.4,1.6,0.7c0.4,0.2,0.7,0.4,1,0.5
			c0.1,0,0.1,0,0.2,0c0.2-0.2,0.4-0.5,0.5-0.7C37,35.5,37,35.4,36.9,35.3z"/>
	</g>
	<path class="st0" d="M32.9,44.1v5.2l-22.8,3.1v3.1L35,53.4l24.8,2.1v-3.1l-22.8-3.1v-5.2H32.9z M32.9,44.1"/>
	<path class="st0" d="M35,16.6c-11.4,0-30-2.1-30-2.1v31c0,0,17.6-2.1,30-2.1s30,2.1,30,2.1v-31C65,14.5,46.4,16.6,35,16.6z
		 M63.5,43.9c0,0-16.7-1.9-28.5-1.9S6.5,43.9,6.5,43.9V16.2c0,0,17.7,1.9,28.5,1.9s28.5-1.9,28.5-1.9V43.9z"/>
</g>
</svg>
