<svg version="1.1" xmlns="http://www.w3.org/2000/svg" xmlns:xlink="http://www.w3.org/1999/xlink" x="0px" y="0px"
	 viewBox="0 0 70 70" style="enable-background:new 0 0 70 70;" xml:space="preserve">
<style type="text/css">
	.st0{fill:#232323;}
</style>
<g>
	<path class="st0" d="M18.3,21.3c8.7,0.7,17.4,0.7,26,0c1.1-0.1,1.9-1.1,1.8-2.1C46,18,45.1,17.3,44,17.3c-1.2,0.1-2.4,0.2-3.7,0.3
		v-5c0-4.3-4-7.9-9-7.9c-5,0-9,3.5-9,7.9v5c-1.2-0.1-2.4-0.2-3.7-0.3c-1.1-0.1-2.1,0.7-2.2,1.8C16.3,20.2,17.1,21.2,18.3,21.3z"/>
	<polygon class="st0" points="30.9,33.1 29,33.1 27.5,36 30.9,36 31.7,36 35.1,36 33.6,33.1 31.7,33.1 	"/>
	<path class="st0" d="M60.5,27.9c-1.5-2-3.4-1.6-3.4-1.6c-1,0.1-2.5,1.6-3.1,2.3c-0.2-0.1-0.4-0.2-0.6,0L51.6,30
		c-0.1,0.1-0.2,0.3-0.2,0.4L13.2,62c-0.2-0.1-0.4-0.1-0.5,0.1l-1.8,1.5c-0.2,0.2-0.2,0.5-0.1,0.7l0.6,0.8c0.2,0.2,0.5,0.2,0.7,0.1
		l1.8-1.5c0.1-0.1,0.2-0.3,0.2-0.4l38.2-31.6c0.2,0.1,0.4,0.1,0.5-0.1l1.8-1.5c0.2-0.2,0.2-0.4,0.1-0.6c0.5-0.4,1.8-1.5,1.9-1.7
		c1-0.7,2.1,0,2.7,0.8c0.2,0.2,0.3,0.4,0.4,0.7c0.7,1.5-1,1.9-1,1.9c-1.2,0.5-0.9,1.2-0.9,1.2c0.7,1.1,2.3-0.3,2.3-0.3
		C62.4,30.1,60.5,27.9,60.5,27.9z"/>
</g>
</svg>
