<svg version="1.1" xmlns="http://www.w3.org/2000/svg" xmlns:xlink="http://www.w3.org/1999/xlink" x="0px" y="0px"
	 viewBox="0 0 70 70" style="enable-background:new 0 0 70 70;" xml:space="preserve">
<style type="text/css">
	.st0{fill:#232323;}
</style>
<g>
	<g>
		<path class="st0" d="M16.4,45c-3.1,1.8-5,3.8-5,5.5c0,4.4,10.2,7.9,23,8.1L16.4,45z"/>
		<path class="st0" d="M49.9,43c-0.1,1.4-0.9,3.3-4.5,4.6C42.9,48.5,39.6,49,36,49c0,0,0,0,0,0c-7.2,0-14.9-1.9-14.9-6.2
			c0,0,0,0,0-0.1c-0.5,0.2-1.1,0.4-1.6,0.7l19.9,15.1c11.1-0.7,19.6-4,19.6-8C59,48.1,55.1,45.2,49.9,43z"/>
	</g>
	<path class="st0" d="M14.1,38.1l2.1-2.9l-3.4,1.1l-0.2-3.6l-1.9,3l-2.4-2.6l0.5,3.6l-3.5-0.4l2.6,2.4l-2.9,2l3.5,0.2l-1,3.5
		l2.8-2.2l1.4,3.3l0.8-3.5l3.1,1.6l-0.2-0.4L42,63.3c0.3,0.2,0.7,0.2,0.9-0.1c0.2-0.3,0.2-0.7-0.1-1L14,40.3l3.4-0.8L14.1,38.1z"/>
	<path class="st0" d="M41.6,14.7C44.1,3,23.2,31.2,23.2,42c0,3.2,6.4,5,12.7,5l-1.2-2L32.4,46l1.6-2l-1.7-1.9l2.3,1l1.2-2.3
		l-0.2,2.6l2.5,0.5l-2.5,0.6L36,47c6,0,11.8-1.6,11.8-5C47.8,27.8,38.9,27.6,41.6,14.7z M30.1,34.6l0.2,2.6L29,35l-2.3,1l1.7-1.9
		l-1.6-2l2.3,1.1l1.3-2.2l-0.3,2.6l2.5,0.6L30.1,34.6z M37.2,23.5l-1.5,2.1l0.5-2.5l-2.4-0.9l2.5-0.3l0.1-2.6l1,2.4l2.4-0.7L38,22.7
		l1.4,2.1L37.2,23.5z M45.2,36.7L43,35.5l-1.4,2.1l0.4-2.6l-2.4-0.7l2.5-0.4l-0.1-2.6l1.2,2.3l2.4-0.8l-1.8,1.8L45.2,36.7z"/>
</g>
</svg>
